<?xml version="1.0" encoding="UTF-8"?>
<svg id="Capa_2" data-name="Capa 2" xmlns="http://www.w3.org/2000/svg" viewBox="0 0 108.17 149.37">
  <defs>
    <style>
      .cls-1 {
        fill: #fff;
      }
    </style>
  </defs>
  <g id="Capa_2-2" data-name="Capa 2">
    <path class="cls-1" d="M69.52,34.86c-1.41.37-2.89.47-4.43.1,1.81,2.28,7.79.27,8.41-2.56-.11.1-.21.2-.3.3-1.02,1.03-2.28,1.8-3.68,2.16Z"/>
    <path class="cls-1" d="M78.24,32.61c-.3.62-1.13,1.81-1.96,2.58-.77.71-3.06,1.87-3.34,2.02.29-.04,2.65-.46,3.97-1.61.93-.81,1.4-2.18,1.33-2.99Z"/>
    <path class="cls-1" d="M52.73,56.82c-3.73-.99-5.68-4.94-6.48-8.66-.82.84-.73,1.75-.92,2.63-.56,3.33-3.02,5.53-5.84,7.08-2.53,5.32-8.47,8.89-13.4,12.36,5.74,2.64,9.16,8.62,12.64,13.45,1.05,1.45,2.13,2.77,3.71,3.64,0,0,.12-3.31.12-3.34-.11-3.45,9.87-10.87,11.96-13.49,6.1-6.48,13.17,4.86,19.01,3.18,2.36-1.59.05-4.24,2.85-4.68,2.04-.32-.8-2.17-.97-3.78l5.31-2c-.7-2.43,1.59-2.6,3.2-3.16,2.9-.94-.39-4.47-1.85-7.61-2.4-5.01,3.35-5.43,1.27-14.91-3.13,2.6-9.13,3.88-12.33.74-1.63.76-3.32.75-5.19.7-.16.95,2.26.85,1.48,1.66-4.82,1.99-3.06,4.04-6.85,6.43-2.43,1.27-5.1-.16-5.97-2.67-.52-1.52-1.76-2.49-3.28-2.39-6.98.62-1.31,16.4,3.36,12.75.98.94-.52,1.31-.63,1.91-.43,2.4.5,4.77,1.69,6.76.22.36.34.77.35,1.19-2.56-1.93-3.3-4.62-3.24-7.79ZM77.72,52.2c-.27.05-.25.47-.44.85-.76,1.47-3.86-3.68-4.06-4.16,1.54.7,2.84,1.8,4.23.86.62-.42.64-1.76,1.05-2.43l-2.06-.16c.57-.42,1.7-.85,2.37-.3.89.73-1.47,3.23.06,4.32.28.2.54.33.5.62-.09.57-.89.27-1.64.41ZM82.21,59.72c-.85.38-1.68.49-2.57.45.55-.84,1.6-1.02,2.57-.45ZM73.31,44.07c2.2-1.23,6.83-3.22,8.23-.91.47.77.69,1.88-.06,2.66-4.29-2.61-3.89-2.11-8.01-1.32,0,0,0,0,0,0-.26.04-.39-.31-.15-.44ZM53.39,52.02c-.53.43-2.82-.23-3.21-1.69-.89-3.3,2.23-2.58,2.23-4.33,0-.73-.38-1.3-1.12-1.47-1.64-.37-1.98,1.92-2.3,1.12-.31-.77.42-1.71.93-2.05,1.76-1.22,3.57.5,3.39,2.27-.33,2.35-2.45,1.52-2.41,3.42,0,.52.27,1.18.89,1.48.36-1.16.34-2.39,1.7-2.77-.82,2.31.68,3.38-.09,4Z"/>
    <path class="cls-1" d="M33.18,43.09c-.27-2.49.13-4.36.91-6.51-1.86,1.59-1.85,5.73-.91,6.51Z"/>
    <path class="cls-1" d="M23.77,132.11c.53.4,1.07.78,1.62,1.15,2.74,1.85,5.68,3.45,8.72,4.73,1.17.5,2.36.95,3.56,1.35-3.67-3.93-6.77-8.21-8.26-10.53-2.07,1.18-3.96,2.23-5.64,3.3Z"/>
    <path class="cls-1" d="M54.09,0C24.26,0,0,24.26,0,54.09v36.61c0,2.73.2,5.46.61,8.12,2.12,14.12,9.62,26.62,21.11,35.21,5.2,3.9,10.98,6.78,17.19,8.59,4.65,4.48,8.72,6.75,12.11,6.75,1.74,0,3.28-.58,4.66-1.8.91-.92,1.83-1.91,2.73-2.95,5.79-.46,11.42-1.83,16.74-4.08,20.07-8.48,33.04-28.05,33.04-49.84v-36.61C108.17,24.26,83.91,0,54.09,0ZM106.76,90.7c0,21.82-13.27,40.54-32.17,48.53-5.25,2.22-10.93,3.61-16.88,4.02-.97,1.15-1.98,2.26-3.04,3.32-3.97,3.5-9.85-.15-15.03-5.21-6.24-1.77-12.01-4.67-17.07-8.46-10.84-8.1-18.46-20.3-20.56-34.29-.39-2.58-.59-5.22-.59-7.91v-36.61C1.42,25,25,1.42,54.09,1.42s52.67,23.58,52.67,52.67v36.61Z"/>
    <path class="cls-1" d="M78.46,98.83c1.73-4.26,4.24-3.1,8.01-10.73,1.56-3.15,2.75-6.32,4.07-9.58.36-.64,4.5-11.25,1.99-8.97-1.61,3.53-3.14,6.97-4.95,10.38-.28.52-.7,1.04-1.37,1.04,1.41-5.01,7.24-12.29,6.38-17.47-.51.1-.89.63-1.11,1.11-.73,1.65-6.27,14.07-8.18,13.85l5.28-9.82c2.65-4.9,4.54-13.08.51-5.61-1.37,2.52-6.29,13.23-8.88,13.57,2.97-4.87,5.89-9.27,7.98-14.36.17-.41.12-.84-.22-.93-.78-.19-3.49,4.55-4.25,5.7-1.95,2.99-3.77,5.99-6.16,8.64-3.61,3.75-3.65,9.4-4.39,14.31-.19,1.92-.65,3.57-1.51,5.35-5.39,11.16-12.27,21.54-20.72,30.58.58,1.83,1.39,3.58.63,5.55-4.52-11.42-12.79-22.71-15.24-34.88-1.41-10.02-8.07-24.98-20.09-16.61-9.25,6.54-10.93,24.12,1.1,28.52-1.04-2.96-4.13-6.9-4.01-9.74,1.01.54,1.44,1.36,1.89,2.18,7.22,12.17,14.71,29.27,26.09,39.51.73.67,1.48,1.3,2.25,1.9,1.83,1.43,3.76,2.69,5.8,3.72,1.36.62,3.11.68,4.23-.56.64-.7,1.27-1.41,1.88-2.13.4-.46.79-.92,1.17-1.39,2.12-2.55,4.08-5.21,5.84-8.09,6.22-9.61,11.53-24.41,15.98-35.04Z"/>
    <path class="cls-1" d="M82.78,11.53c-2.74-1.85-5.68-3.44-8.72-4.73-6.32-2.67-13.04-4.03-19.97-4.03s-13.65,1.36-19.98,4.03c-3.04,1.29-5.98,2.88-8.72,4.73-2.72,1.84-5.27,3.95-7.6,6.27-2.32,2.32-4.43,4.88-6.26,7.6-1.86,2.74-3.45,5.68-4.74,8.72-2.67,6.32-4.03,13.04-4.03,19.97v36.61c0,1.72.09,3.43.25,5.12,4.05-10.53,10.37-19.73,20.47-25.9,4.06-2.49,11.1-6.93,13.76-11.04-5.64,1.13-12.35-3.63-11.12-9.71-8.7-5.83-1.87-24.13,8.55-19.16,4.59-18.51,28.49-18.85,40.76-7.7,6.95.92,15.49,9.66,9.52,16.03-.2,3.39.89,5.47-1.39,8.73-.95,1.35-1.18,3.14-.43,4.55l3.37,6.26c.8,1.48-1.18,2.96-2.55,3.27-4.8.81.84,3.78-4.11,4.39-.73.08-1.48.11-2,.35.16,1.07,1.72,1.98,1.08,3.26-.43.86-2.26.96-2.62,1.28-.5.44.38,2.94-1.91,4.42-1.12.74-2.4.68-3.72.21-2.97-1.04-5.65-2.58-8.31-4.3-2.15-1.39-4.78-1.23-6.69.65l-9.78,9.58c-1.34,1.32-1.94,2.79-1.73,4.66.38,5.91,1.1,15.36,1.69,21.38.27,2.9.24,5.65-.58,8.37l4.93,9c8.68-9.29,15.72-19.74,20.91-31.29,1.39-3.29.96-12.3,3.91-16.21,3.58-4.75,7.13-9.25,10.23-14.36,1.99-3.29,3.64-1.91,3.79-1.91.55-.02,1.13-1.55,2.41-1.29,1.62.34.72,2.73,1.08,2.99,2.11,1.49,1.37,2.51.7,5.53,3.37,1.26-1.39,9.95-2.11,12.55-1.35,3.49-2.6,6.87-4.44,10.1-3.91,6.88-5.69,4.88-7.69,10.19-5.23,13.58-10.86,29.4-20.1,41.1,5.23-.48,10.32-1.76,15.17-3.81,3.04-1.28,5.98-2.88,8.72-4.73,2.72-1.84,5.28-3.95,7.6-6.27,2.32-2.32,4.43-4.88,6.27-7.6,1.85-2.74,3.44-5.67,4.73-8.71,2.67-6.33,4.03-13.05,4.03-19.98v-36.61c0-6.93-1.36-13.65-4.03-19.97-1.29-3.04-2.88-5.98-4.73-8.72-1.84-2.72-3.95-5.28-6.27-7.6-2.32-2.32-4.88-4.43-7.6-6.27Z"/>
  </g>
</svg>