<?xml version="1.0" encoding="UTF-8"?>
<svg id="Capa_2" data-name="Capa 2" xmlns="http://www.w3.org/2000/svg" viewBox="0 0 992.13 992.13">
  <defs>
    <style>
      .cls-1 {
        fill: #f8f6f2;
      }

      .cls-2 {
        fill: #3f4c44;
      }
    </style>
  </defs>
  <g id="reglas">
    <g>
      <circle class="cls-2" cx="496.06" cy="496.06" r="496.06"/>
      <g>
        <rect class="cls-2" x="105.96" y="87.24" width="780.2" height="821.66" rx="390.1" ry="390.1"/>
        <path class="cls-1" d="M501.79,936.89c-17.4,0-38.3-10.86-62.16-32.27-35.47-4.86-70.23-14.43-103.36-28.44-8.52-3.6-17.03-7.55-25.28-11.72-38.8-19.6-74.2-45.25-105.2-76.26-10.46-10.46-20.43-21.55-29.63-32.96-23.85-29.57-43.48-62.38-58.35-97.53-21.41-50.62-32.27-104.39-32.27-159.8s10.86-109.18,32.27-159.8c20.68-48.89,50.28-92.79,87.98-130.49,37.69-37.7,81.59-67.3,130.49-87.98,50.62-21.41,104.39-32.26,159.8-32.26s109.18,10.86,159.8,32.26c48.89,20.68,92.79,50.28,130.49,87.98,37.7,37.69,67.3,81.6,87.98,130.49,21.41,50.62,32.27,104.39,32.27,159.8s-10.86,109.18-32.27,159.8c-20.68,48.89-50.28,92.79-87.98,130.49-37.69,37.7-81.59,67.3-130.49,87.98-34.86,14.74-71.5,24.55-108.94,29.17-6.42,7.73-13.06,15.06-19.78,21.8l-.12.12-.13.11c-7.15,6.31-15.6,9.51-25.1,9.51Z"/>
        <g>
          <g>
            <path d="M869.44,340.18c-20.41-48.26-49.63-91.59-86.84-128.8-37.21-37.22-80.55-66.43-128.8-86.84-49.96-21.13-103.03-31.85-157.73-31.85s-107.77,10.72-157.73,31.85c-48.26,20.41-91.59,49.63-128.8,86.84-37.22,37.21-66.43,80.55-86.84,128.8-21.13,49.96-31.85,103.03-31.85,157.74s10.72,107.77,31.85,157.74c14.72,34.8,34.01,67.04,57.59,96.27,9.12,11.3,18.87,22.16,29.25,32.54,30.68,30.68,65.52,55.92,103.85,75.28,8.16,4.12,16.48,7.98,24.96,11.56,33.31,14.09,68,23.55,103.63,28.29,28.69,26.08,59.83,42.87,81.42,23.82,7.26-7.29,14.18-15,20.8-23.07,37.74-4.45,74.45-14.16,109.62-29.04,48.26-20.41,91.59-49.63,128.8-86.84,37.22-37.21,66.43-80.55,86.84-128.8,21.13-49.96,31.85-103.03,31.85-157.74s-10.72-107.77-31.85-157.74ZM319.56,853.79c14.33-12.71,32.75-22.75,54.67-35.24,9.99,15.54,32.24,46.06,57.7,71.46-39.73-6.47-77.5-18.86-112.37-36.22ZM537.6,893.04c-2.38,2.92-4.79,5.81-7.22,8.69-4.37,5.14-8.83,10.22-13.39,15.25-6.62,7.33-16.98,6.94-24.98,3.28-10.38-5.24-20.27-11.46-29.72-18.49-3.91-2.91-7.75-5.96-11.51-9.14-70.77-59.72-116.39-164.75-160.31-238.81-2.68-4.83-5.25-9.67-11.2-12.87-.72,16.75,17.57,40.04,23.71,57.54-71.02-25.99-61.13-129.76-6.51-168.4,70.97-49.38,110.26,38.93,118.6,98.06,14.45,71.86,63.29,138.5,90,205.94,4.48-11.64-.34-21.96-3.75-32.77,49.89-53.34,90.52-114.65,122.35-180.53,5.07-10.51,7.79-20.26,8.91-31.58,4.35-29,4.62-62.35,25.88-84.5,14.16-15.62,24.86-33.37,36.42-51.01,4.44-6.79,20.45-34.76,25.06-33.61,2.02.5,2.32,3.03,1.32,5.46-12.37,30.07-29.57,56.06-47.14,84.77,15.32-1.99,44.37-65.25,52.42-80.12,23.82-44.06,12.63,4.21-2.96,33.16l-31.23,57.96c11.3,1.32,44.03-72.04,48.34-81.75,1.27-2.85,3.52-6,6.52-6.55,5.08,30.53-29.36,73.51-37.63,103.11,3.91.03,6.41-3.08,8.04-6.15,10.71-20.12,19.76-40.41,29.22-61.26,14.84-13.49-9.6,49.14-11.76,52.96-7.78,19.25-14.79,37.94-23.99,56.57-22.25,45.04-37.09,38.2-47.31,63.29-26.26,62.78-57.59,150.18-94.3,206.89-9.69,15.81-20.4,30.52-31.88,44.63ZM531.05,439.55v-.04c-.07-2.47-.79-4.88-2.07-7-7.06-11.75-12.52-25.74-9.98-39.91.63-3.53,9.51-5.73,3.69-11.31-27.56,21.56-61-71.61-19.79-75.24,8.92-.57,16.26,5.16,19.34,14.1,5.12,14.82,20.87,23.24,35.24,15.78,22.39-14.12,11.97-26.25,40.43-37.97,4.6-4.8-9.69-4.2-8.74-9.79,11.08.28,21.01.32,30.66-4.17,18.86,18.56,54.3,11,72.79-4.37,12.29,55.99-21.7,58.47-7.49,88.05,8.58,18.54,28.06,39.38,10.9,44.92-9.49,3.32-23.03,4.34-18.87,18.65l-31.39,11.81c1.02,9.53,17.8,20.45,5.77,22.35-16.54,2.6-2.91,18.19-16.86,27.61-34.44,9.9-76.18-57.01-112.19-18.75-12.35,15.43-71.26,59.25-70.64,79.63l-.68,19.72c-9.35-5.14-15.71-12.93-21.9-21.53-20.53-28.49-40.74-63.77-74.62-79.41,29.06-20.43,64.14-41.56,79.12-72.92,16.63-9.2,31.12-22.16,34.44-41.82,1.14-5.16.58-10.57,5.46-15.54,4.72,21.96,16.21,45.32,38.22,51.13-.36,18.71,4.04,34.61,19.16,46.02ZM584.88,264.5c9.11,2.15,17.82,1.6,26.14-.58,8.28-2.17,15.72-6.69,21.7-12.81.57-.58,1.17-1.15,1.82-1.72-3.66,16.66-38.99,28.57-49.66,15.11ZM650.95,265.84c4.9-4.55,9.77-11.57,11.57-15.21.41,4.77-2.36,12.85-7.85,17.63-8.33,7.26-23.65,9.59-23.65,9.59,0,0,15.09-7.53,19.92-12ZM551.3,891.36c52.79-68.69,85.34-160.07,115.65-238.78,11.79-31.35,22.31-19.55,45.41-60.17,10.83-19.06,18.22-39.01,26.21-59.61,4.21-15.34,32.33-66.65,12.43-74.08,3.94-17.87,8.31-23.85-4.12-32.68-2.11-1.5,3.19-15.64-6.35-17.61-7.56-1.56-11.03,7.5-14.26,7.59-.88.03-10.63-8.12-22.37,11.26-18.28,30.18-39.28,56.72-60.42,84.79-17.39,23.09-14.83,76.27-23.05,95.71-30.65,68.17-72.19,129.88-123.47,184.75l-29.08-53.16c4.87-16.07,5-32.28,3.43-49.39-3.51-35.57-7.75-91.35-9.97-126.28-1.25-11.04,2.32-19.69,10.23-27.46l57.68-56.6c11.27-11.06,26.84-12.06,39.54-3.81,15.66,10.15,31.51,19.22,49.02,25.4,7.83,2.76,15.34,3.08,22.01-1.24,13.47-8.73,8.32-23.53,11.22-26.1,2.17-1.92,12.93-2.49,15.47-7.57,3.77-7.57-5.41-12.9-6.35-19.23,3.09-1.44,7.52-1.63,11.82-2.1,29.21-3.6-4.06-21.11,24.25-25.88,8.11-1.87,19.77-10.56,15.08-19.3l-19.9-37c-4.47-8.31-3.08-18.86,2.51-26.85,13.48-19.24,7.06-31.53,8.23-51.55,35.24-37.56-15.21-89.18-56.24-94.65-72.41-65.82-213.52-63.77-240.64,45.51-61.46-29.37-101.81,78.65-50.44,113.06-7.27,35.94,32.36,64.04,65.65,57.33-15.73,24.28-57.28,50.51-81.24,65.17-77.49,47.4-117.3,124.85-138.94,210.73-4.38,24.77-9.97,44.84-16.48,61.69-53.23-67.6-85.02-152.83-85.02-245.35,0-219.06,178.22-397.28,397.28-397.28s397.28,178.22,397.28,397.28c0,200.32-149.03,366.49-342.04,393.45ZM396.46,312.45c-5.53-4.56-5.61-29,5.38-38.39-4.6,12.7-6.93,23.74-5.38,38.39Z"/>
            <path d="M656.54,262.28c.08-.1.14-.21.19-.31-.07.1-.13.2-.19.31Z"/>
            <path d="M516.32,341.6c-8.05,2.2-7.94,9.48-10.04,16.33-3.68-1.78-5.2-5.67-5.26-8.74-.2-11.2,12.32-6.33,14.25-20.18,1.08-10.46-9.62-20.6-20-13.42-3.02,1.99-7.29,7.56-5.48,12.09,1.89,4.72,3.89-8.82,13.55-6.64,4.39.99,6.62,4.34,6.62,8.67,0,10.32-18.4,6.08-13.14,25.55,2.32,8.58,15.83,12.5,18.97,9.95,4.52-3.68-4.33-9.96.53-23.63Z"/>
            <path d="M634.32,320.87s.03,0,.04,0c24.33-4.69,21.95-7.65,47.28,7.77,4.41-4.61,3.1-11.18.35-15.72-8.23-13.62-35.58-1.88-48.58,5.37-1.37.76-.64,2.85.91,2.6Z"/>
            <path d="M666.21,360.26c-9.05-6.45,4.89-21.21-.35-25.52-3.97-3.27-10.63-.7-14.01,1.77l12.17.93c-2.43,4-2.58,11.88-6.23,14.37-8.16,5.56-15.83-.9-24.95-5.06,1.21,2.87,19.5,33.26,23.98,24.57,1.17-2.26,1.02-4.73,2.62-5.01,4.42-.78,9.18.97,9.7-2.4.26-1.69-1.29-2.48-2.93-3.64Z"/>
            <path d="M670.81,413.33c5.24.23,10.14-.39,15.17-2.64-5.74-3.4-11.94-2.3-15.17,2.64Z"/>
          </g>
          <g>
            <path class="cls-2" d="M869.44,340.18c-20.41-48.26-49.63-91.59-86.84-128.8-37.21-37.22-80.55-66.43-128.8-86.84-49.96-21.13-103.03-31.85-157.73-31.85s-107.77,10.72-157.73,31.85c-48.26,20.41-91.59,49.63-128.8,86.84-37.22,37.21-66.43,80.55-86.84,128.8-21.13,49.96-31.85,103.03-31.85,157.74s10.72,107.77,31.85,157.74c14.72,34.8,34.01,67.04,57.59,96.27,9.12,11.3,18.87,22.16,29.25,32.54,30.68,30.68,65.52,55.92,103.85,75.28,8.16,4.12,16.48,7.98,24.96,11.56,33.31,14.09,68,23.55,103.63,28.29,28.69,26.08,59.83,42.87,81.42,23.82,7.26-7.29,14.18-15,20.8-23.07,37.74-4.45,74.45-14.16,109.62-29.04,48.26-20.41,91.59-49.63,128.8-86.84,37.22-37.21,66.43-80.55,86.84-128.8,21.13-49.96,31.85-103.03,31.85-157.74s-10.72-107.77-31.85-157.74ZM319.56,853.79c14.33-12.71,32.75-22.75,54.67-35.24,9.99,15.54,32.24,46.06,57.7,71.46-39.73-6.47-77.5-18.86-112.37-36.22ZM537.6,893.04c-2.38,2.92-4.79,5.81-7.22,8.69-4.37,5.14-8.83,10.22-13.39,15.25-6.62,7.33-16.98,6.94-24.98,3.28-10.38-5.24-20.27-11.46-29.72-18.49-3.91-2.91-7.75-5.96-11.51-9.14-70.77-59.72-116.39-164.75-160.31-238.81-2.68-4.83-5.25-9.67-11.2-12.87-.72,16.75,17.57,40.04,23.71,57.54-71.02-25.99-61.13-129.76-6.51-168.4,70.97-49.38,110.26,38.93,118.6,98.06,14.45,71.86,63.29,138.5,90,205.94,4.48-11.64-.34-21.96-3.75-32.77,49.89-53.34,90.52-114.65,122.35-180.53,5.07-10.51,7.79-20.26,8.91-31.58,4.35-29,4.62-62.35,25.88-84.5,14.16-15.62,24.86-33.37,36.42-51.01,4.44-6.79,20.45-34.76,25.06-33.61,2.02.5,2.32,3.03,1.32,5.46-12.37,30.07-29.57,56.06-47.14,84.77,15.32-1.99,44.37-65.25,52.42-80.12,23.82-44.06,12.63,4.21-2.96,33.16l-31.23,57.96c11.3,1.32,44.03-72.04,48.34-81.75,1.27-2.85,3.52-6,6.52-6.55,5.08,30.53-29.36,73.51-37.63,103.11,3.91.03,6.41-3.08,8.04-6.15,10.71-20.12,19.76-40.41,29.22-61.26,14.84-13.49-9.6,49.14-11.76,52.96-7.78,19.25-14.79,37.94-23.99,56.57-22.25,45.04-37.09,38.2-47.31,63.29-26.26,62.78-57.59,150.18-94.3,206.89-9.69,15.81-20.4,30.52-31.88,44.63ZM531.05,439.55v-.04c-.07-2.47-.79-4.88-2.07-7-7.06-11.75-12.52-25.74-9.98-39.91.63-3.53,9.51-5.73,3.69-11.31-27.56,21.56-61-71.61-19.79-75.24,8.92-.57,16.26,5.16,19.34,14.1,5.12,14.82,20.87,23.24,35.24,15.78,22.39-14.12,11.97-26.25,40.43-37.97,4.6-4.8-9.69-4.2-8.74-9.79,11.08.28,21.01.32,30.66-4.17,18.86,18.56,54.3,11,72.79-4.37,12.29,55.99-21.7,58.47-7.49,88.05,8.58,18.54,28.06,39.38,10.9,44.92-9.49,3.32-23.03,4.34-18.87,18.65l-31.39,11.81c1.02,9.53,17.8,20.45,5.77,22.35-16.54,2.6-2.91,18.19-16.86,27.61-34.44,9.9-76.18-57.01-112.19-18.75-12.35,15.43-71.26,59.25-70.64,79.63l-.68,19.72c-9.35-5.14-15.71-12.93-21.9-21.53-20.53-28.49-40.74-63.77-74.62-79.41,29.06-20.43,64.14-41.56,79.12-72.92,16.63-9.2,31.12-22.16,34.44-41.82,1.14-5.16.58-10.57,5.46-15.54,4.72,21.96,16.21,45.32,38.22,51.13-.36,18.71,4.04,34.61,19.16,46.02ZM584.88,264.5c9.11,2.15,17.82,1.6,26.14-.58,8.28-2.17,15.72-6.69,21.7-12.81.57-.58,1.17-1.15,1.82-1.72-3.66,16.66-38.99,28.57-49.66,15.11ZM650.95,265.84c4.9-4.55,9.77-11.57,11.57-15.21.41,4.77-2.36,12.85-7.85,17.63-8.33,7.26-23.65,9.59-23.65,9.59,0,0,15.09-7.53,19.92-12ZM551.3,891.36c52.79-68.69,85.34-160.07,115.65-238.78,11.79-31.35,22.31-19.55,45.41-60.17,10.83-19.06,18.22-39.01,26.21-59.61,4.21-15.34,32.33-66.65,12.43-74.08,3.94-17.87,8.31-23.85-4.12-32.68-2.11-1.5,3.19-15.64-6.35-17.61-7.56-1.56-11.03,7.5-14.26,7.59-.88.03-10.63-8.12-22.37,11.26-18.28,30.18-39.28,56.72-60.42,84.79-17.39,23.09-14.83,76.27-23.05,95.71-30.65,68.17-72.19,129.88-123.47,184.75l-29.08-53.16c4.87-16.07,5-32.28,3.43-49.39-3.51-35.57-7.75-91.35-9.97-126.28-1.25-11.04,2.32-19.69,10.23-27.46l57.68-56.6c11.27-11.06,26.84-12.06,39.54-3.81,15.66,10.15,31.51,19.22,49.02,25.4,7.83,2.76,15.34,3.08,22.01-1.24,13.47-8.73,8.32-23.53,11.22-26.1,2.17-1.92,12.93-2.49,15.47-7.57,3.77-7.57-5.41-12.9-6.35-19.23,3.09-1.44,7.52-1.63,11.82-2.1,29.21-3.6-4.06-21.11,24.25-25.88,8.11-1.87,19.77-10.56,15.08-19.3l-19.9-37c-4.47-8.31-3.08-18.86,2.51-26.85,13.48-19.24,7.06-31.53,8.23-51.55,35.24-37.56-15.21-89.18-56.24-94.65-72.41-65.82-213.52-63.77-240.64,45.51-61.46-29.37-101.81,78.65-50.44,113.06-7.27,35.94,32.36,64.04,65.65,57.33-15.73,24.28-57.28,50.51-81.24,65.17-77.49,47.4-117.3,124.85-138.94,210.73-4.38,24.77-9.97,44.84-16.48,61.69-53.23-67.6-85.02-152.83-85.02-245.35,0-219.06,178.22-397.28,397.28-397.28s397.28,178.22,397.28,397.28c0,200.32-149.03,366.49-342.04,393.45ZM396.46,312.45c-5.53-4.56-5.61-29,5.38-38.39-4.6,12.7-6.93,23.74-5.38,38.39Z"/>
            <path class="cls-2" d="M656.54,262.28c.08-.1.14-.21.19-.31-.07.1-.13.2-.19.31Z"/>
            <path class="cls-2" d="M516.32,341.6c-8.05,2.2-7.94,9.48-10.04,16.33-3.68-1.78-5.2-5.67-5.26-8.74-.2-11.2,12.32-6.33,14.25-20.18,1.08-10.46-9.62-20.6-20-13.42-3.02,1.99-7.29,7.56-5.48,12.09,1.89,4.72,3.89-8.82,13.55-6.64,4.39.99,6.62,4.34,6.62,8.67,0,10.32-18.4,6.08-13.14,25.55,2.32,8.58,15.83,12.5,18.97,9.95,4.52-3.68-4.33-9.96.53-23.63Z"/>
            <path class="cls-2" d="M634.32,320.87s.03,0,.04,0c24.33-4.69,21.95-7.65,47.28,7.77,4.41-4.61,3.1-11.18.35-15.72-8.23-13.62-35.58-1.88-48.58,5.37-1.37.76-.64,2.85.91,2.6Z"/>
            <path class="cls-2" d="M666.21,360.26c-9.05-6.45,4.89-21.21-.35-25.52-3.97-3.27-10.63-.7-14.01,1.77l12.17.93c-2.43,4-2.58,11.88-6.23,14.37-8.16,5.56-15.83-.9-24.95-5.06,1.21,2.87,19.5,33.26,23.98,24.57,1.17-2.26,1.02-4.73,2.62-5.01,4.42-.78,9.18.97,9.7-2.4.26-1.69-1.29-2.48-2.93-3.64Z"/>
            <path class="cls-2" d="M670.81,413.33c5.24.23,10.14-.39,15.17-2.64-5.74-3.4-11.94-2.3-15.17,2.64Z"/>
          </g>
        </g>
      </g>
    </g>
  </g>
</svg>