<?xml version="1.0" encoding="UTF-8"?>
<svg id="Capa_2" data-name="Capa 2" xmlns="http://www.w3.org/2000/svg" viewBox="0 0 314.92 307.98">
  <defs>
    <style>
      .cls-1 {
        fill: #f8f6f2;
      }
    </style>
  </defs>
  <g id="Capa_2-2" data-name="Capa 2">
    <polygon class="cls-1" points="179.04 189.2 193.01 189.2 193.01 185.8 182.44 185.8 182.44 177.13 193.01 177.13 193.01 173.73 182.44 173.73 182.44 167.44 193.01 167.44 193.01 163.99 179.04 163.99 179.04 189.2"/>
    <polygon class="cls-1" points="35.85 296.97 25.24 272.64 14.68 297.23 4.65 273.96 0 273.96 14.63 307.91 25.25 283.52 35.85 307.91 50.46 273.96 45.81 273.96 35.85 296.97"/>
    <polygon class="cls-1" points="84.27 286.59 68.51 286.59 68.51 273.91 64.01 273.91 64.01 306.87 68.51 306.87 68.51 291.04 84.27 291.04 84.27 306.87 88.72 306.87 88.72 273.91 84.27 273.91 84.27 286.59"/>
    <rect class="cls-1" x="104.42" y="273.91" width="4.45" height="32.96"/>
    <path class="cls-1" d="M143.44,291.75c-.76-.95-1.73-1.81-2.91-2.6-1.18-.78-2.83-1.63-4.95-2.54-2.12-.91-3.62-1.75-4.5-2.51-.88-.77-1.32-1.65-1.32-2.64,0-1.15.5-2.09,1.51-2.82,1.01-.73,2.32-1.1,3.94-1.1,1.48,0,2.61.25,3.39.74.78.49,1.66,1.24,2.62,2.24l3.65-2.92c-1.22-1.59-2.76-2.77-4.61-3.54-1.85-.78-3.67-1.16-5.46-1.16-2.71,0-5.01.83-6.91,2.5-1.9,1.66-2.85,3.68-2.85,6.04,0,.98.17,1.9.51,2.77.34.86.87,1.73,1.6,2.6.73.87,1.59,1.62,2.58,2.25,1,.63,2.42,1.32,4.26,2.08,1.85.76,3.19,1.43,4.04,2.01.85.58,1.55,1.33,2.12,2.23.57.9.85,1.8.85,2.7,0,1.5-.54,2.73-1.63,3.71-1.09.98-2.45,1.47-4.09,1.47-3.38,0-5.89-1.85-7.53-5.56l-4.5,1.27c1.14,3.02,2.76,5.28,4.88,6.79,2.11,1.51,4.55,2.26,7.31,2.26s5.24-.97,7.23-2.9c1.99-1.93,2.99-4.27,2.99-7.01,0-1.17-.19-2.28-.56-3.34-.37-1.05-.93-2.05-1.69-3Z"/>
    <path class="cls-1" d="M176.63,276.55c-2.29-1.76-5.31-2.64-9.06-2.64h-6.62v32.96h4.45v-13.56c4.93.05,8.61-.88,11.04-2.79,2.42-1.91,3.64-4.29,3.64-7.12s-1.15-5.1-3.44-6.86ZM172.92,287.94c-1.63.92-4.14,1.4-7.52,1.44v-11.54c4.17,0,6.88.56,8.11,1.68,1.23,1.12,1.85,2.45,1.85,3.98,0,2.04-.81,3.52-2.44,4.44Z"/>
    <polygon class="cls-1" points="194.66 306.87 212.93 306.87 212.93 302.42 199.11 302.42 199.11 291.09 212.93 291.09 212.93 286.64 199.11 286.64 199.11 278.41 212.93 278.41 212.93 273.91 194.66 273.91 194.66 306.87"/>
    <path class="cls-1" d="M244.57,289.2c1.44-1.69,2.17-3.64,2.17-5.85,0-2.76-1.12-5.02-3.35-6.79-2.23-1.77-5.13-2.65-8.68-2.65h-7.14v32.96h4.5v-13.56h1.01l9.14,13.56h5.16l-9.58-14.11c3.06-.69,5.32-1.88,6.76-3.57ZM232.07,289.38v-11.49c2.5,0,4.4.16,5.69.48,1.29.32,2.33.92,3.1,1.81.78.89,1.16,2.03,1.16,3.43,0,3.98-3.32,5.91-9.96,5.77Z"/>
    <polygon class="cls-1" points="261.64 306.87 279.91 306.87 279.91 302.42 266.09 302.42 266.09 291.09 279.91 291.09 279.91 286.64 266.09 286.64 266.09 278.41 279.91 278.41 279.91 273.91 261.64 273.91 261.64 306.87"/>
    <path class="cls-1" d="M311.55,289.2c1.44-1.69,2.17-3.64,2.17-5.85,0-2.76-1.12-5.02-3.35-6.79-2.23-1.77-5.13-2.65-8.68-2.65h-7.14v32.96h4.5v-13.56h1.01l9.14,13.56h5.16l-9.58-14.11c3.06-.69,5.32-1.88,6.76-3.57ZM299.05,289.38v-11.49c2.5,0,4.4.16,5.69.48,1.29.32,2.33.92,3.1,1.81.78.89,1.16,2.03,1.16,3.43,0,3.98-3.32,5.91-9.96,5.77Z"/>
    <polygon class="cls-1" points="10.27 220.5 48.85 259.98 48.85 205.39 41.73 205.39 41.73 242.95 3.14 203.3 3.14 257.56 10.27 257.56 10.27 220.5"/>
    <polygon class="cls-1" points="175.68 242.95 137.1 203.3 137.1 257.56 144.23 257.56 144.23 220.5 182.81 259.98 182.81 205.39 175.68 205.39 175.68 242.95"/>
    <polygon class="cls-1" points="245.3 242.95 206.72 203.3 206.72 257.56 213.84 257.56 213.84 220.5 252.43 259.98 252.43 205.39 245.3 205.39 245.3 242.95"/>
    <polygon class="cls-1" points="294.34 226.39 281.52 205.39 273.63 205.39 290.67 233.73 290.67 257.56 297.8 257.56 297.8 233.65 314.92 205.39 307.02 205.39 294.34 226.39"/>
    <polygon class="cls-1" points="68.22 257.56 75.63 257.56 82.12 243.1 81.62 244.21 82.2 242.91 82.12 243.1 83.39 240.25 84.28 238.28 87.62 230.83 92.63 219.66 97.69 230.83 101.07 238.28 103.76 244.21 105.78 248.66 109.81 257.56 117.28 257.56 92.65 203.38 68.22 257.56"/>
    <polygon class="cls-1" points="167.25 189.2 167.25 163.99 163.85 163.99 163.85 173.69 151.8 173.69 151.8 163.99 148.36 163.99 148.36 189.2 151.8 189.2 151.8 177.09 163.85 177.09 163.85 189.2 167.25 189.2"/>
    <polygon class="cls-1" points="128.34 189.2 131.74 189.2 131.74 167.44 137.75 167.44 137.75 163.99 122.34 163.99 122.34 167.44 128.34 167.44 128.34 189.2"/>
    <path class="cls-1" d="M174.46,34.86c-1.41.37-2.89.47-4.43.1,1.81,2.28,7.79.27,8.41-2.56-.11.1-.21.2-.3.3-1.02,1.03-2.28,1.8-3.68,2.16Z"/>
    <path class="cls-1" d="M183.18,32.61c-.3.62-1.13,1.81-1.96,2.58-.77.71-3.06,1.87-3.34,2.02.29-.04,2.65-.46,3.97-1.61.93-.81,1.4-2.18,1.33-2.99Z"/>
    <path class="cls-1" d="M157.67,56.82c-3.73-.99-5.68-4.94-6.48-8.66-.82.84-.73,1.75-.92,2.63-.56,3.33-3.02,5.53-5.84,7.08-2.53,5.32-8.47,8.89-13.4,12.36,5.74,2.64,9.16,8.62,12.64,13.45,1.05,1.45,2.13,2.77,3.71,3.64,0,0,.12-3.31.12-3.34-.11-3.45,9.87-10.87,11.96-13.49,6.1-6.48,13.17,4.86,19.01,3.18,2.36-1.59.05-4.24,2.85-4.68,2.04-.32-.8-2.17-.97-3.78l5.31-2c-.7-2.43,1.59-2.6,3.2-3.16,2.9-.94-.39-4.47-1.85-7.61-2.4-5.01,3.35-5.43,1.27-14.91-3.13,2.6-9.13,3.88-12.33.74-1.63.76-3.32.75-5.19.7-.16.95,2.26.85,1.48,1.66-4.82,1.99-3.06,4.04-6.85,6.43-2.43,1.27-5.1-.16-5.97-2.67-.52-1.52-1.76-2.49-3.28-2.39-6.98.62-1.31,16.4,3.36,12.75.98.94-.52,1.31-.63,1.91-.43,2.4.5,4.77,1.69,6.76.22.36.34.77.35,1.19-2.56-1.93-3.3-4.62-3.24-7.79ZM182.66,52.2c-.27.05-.25.47-.44.85-.76,1.47-3.86-3.68-4.06-4.16,1.54.7,2.84,1.8,4.23.86.62-.42.64-1.76,1.05-2.43l-2.06-.16c.57-.42,1.7-.85,2.37-.3.89.73-1.47,3.23.06,4.32.28.2.54.33.5.62-.09.57-.89.27-1.64.41ZM187.16,59.72c-.85.38-1.68.49-2.57.45.55-.84,1.6-1.02,2.57-.45ZM178.26,44.07c2.2-1.23,6.83-3.22,8.23-.91.47.77.69,1.88-.06,2.66-4.29-2.61-3.89-2.11-8.01-1.32,0,0,0,0,0,0-.26.04-.39-.31-.15-.44ZM158.33,52.02c-.53.43-2.82-.23-3.21-1.69-.89-3.3,2.23-2.58,2.23-4.33,0-.73-.38-1.3-1.12-1.47-1.64-.37-1.98,1.92-2.3,1.12-.31-.77.42-1.71.93-2.05,1.76-1.22,3.57.5,3.39,2.27-.33,2.35-2.45,1.52-2.41,3.42,0,.52.27,1.18.89,1.48.36-1.16.34-2.39,1.7-2.77-.82,2.31.68,3.38-.09,4Z"/>
    <path class="cls-1" d="M138.12,43.09c-.27-2.49.13-4.36.91-6.51-1.86,1.59-1.85,5.73-.91,6.51Z"/>
    <path class="cls-1" d="M128.71,132.11c.53.4,1.07.78,1.62,1.15,2.74,1.85,5.68,3.45,8.72,4.73,1.17.5,2.36.95,3.56,1.35-3.67-3.93-6.77-8.21-8.26-10.53-2.07,1.18-3.96,2.23-5.64,3.3Z"/>
    <path class="cls-1" d="M159.03,0c-29.82,0-54.09,24.26-54.09,54.09v36.61c0,2.73.2,5.46.61,8.12,2.12,14.12,9.62,26.62,21.11,35.21,5.2,3.9,10.98,6.78,17.19,8.59,4.65,4.48,8.72,6.75,12.11,6.75,1.74,0,3.28-.58,4.66-1.8.91-.92,1.83-1.91,2.73-2.95,5.79-.46,11.42-1.83,16.74-4.08,20.07-8.48,33.04-28.05,33.04-49.84v-36.61c0-29.82-24.26-54.09-54.09-54.09ZM211.7,90.7c0,21.82-13.27,40.54-32.17,48.53-5.25,2.22-10.93,3.61-16.88,4.02-.97,1.15-1.98,2.26-3.04,3.32-3.97,3.5-9.85-.15-15.03-5.21-6.24-1.77-12.01-4.67-17.07-8.46-10.84-8.1-18.46-20.3-20.56-34.29-.39-2.58-.59-5.22-.59-7.91v-36.61c0-29.09,23.58-52.67,52.67-52.67s52.67,23.58,52.67,52.67v36.61Z"/>
    <path class="cls-1" d="M183.4,98.83c1.73-4.26,4.24-3.1,8.01-10.73,1.56-3.15,2.75-6.32,4.07-9.58.36-.64,4.5-11.25,1.99-8.97-1.61,3.53-3.14,6.97-4.95,10.38-.28.52-.7,1.04-1.37,1.04,1.41-5.01,7.24-12.29,6.38-17.47-.51.1-.89.63-1.11,1.11-.73,1.65-6.27,14.07-8.18,13.85l5.28-9.82c2.65-4.9,4.54-13.08.51-5.61-1.37,2.52-6.29,13.23-8.88,13.57,2.97-4.87,5.89-9.27,7.98-14.36.17-.41.12-.84-.22-.93-.78-.19-3.49,4.55-4.25,5.7-1.95,2.99-3.77,5.99-6.16,8.64-3.61,3.75-3.65,9.4-4.39,14.31-.19,1.92-.65,3.57-1.51,5.35-5.39,11.16-12.27,21.54-20.72,30.58.58,1.83,1.39,3.58.63,5.55-4.52-11.42-12.79-22.71-15.24-34.88-1.41-10.02-8.07-24.98-20.09-16.61-9.25,6.54-10.93,24.12,1.1,28.52-1.04-2.96-4.13-6.9-4.01-9.74,1.01.54,1.44,1.36,1.89,2.18,7.22,12.17,14.71,29.27,26.09,39.51.73.67,1.48,1.3,2.25,1.9,1.83,1.43,3.76,2.69,5.8,3.72,1.36.62,3.11.68,4.23-.56.64-.7,1.27-1.41,1.88-2.13.4-.46.79-.92,1.17-1.39,2.12-2.55,4.08-5.21,5.84-8.09,6.22-9.61,11.53-24.41,15.98-35.04Z"/>
    <path class="cls-1" d="M187.72,11.53c-2.74-1.85-5.68-3.44-8.72-4.73-6.32-2.67-13.04-4.03-19.97-4.03s-13.65,1.36-19.98,4.03c-3.04,1.29-5.98,2.88-8.72,4.73-2.72,1.84-5.27,3.95-7.6,6.27-2.32,2.32-4.43,4.88-6.26,7.6-1.86,2.74-3.45,5.68-4.74,8.72-2.67,6.32-4.03,13.04-4.03,19.97v36.61c0,1.72.09,3.43.25,5.12,4.05-10.53,10.37-19.73,20.47-25.9,4.06-2.49,11.1-6.93,13.76-11.04-5.64,1.13-12.35-3.63-11.12-9.71-8.7-5.83-1.87-24.13,8.55-19.16,4.59-18.51,28.49-18.85,40.76-7.7,6.95.92,15.49,9.66,9.52,16.03-.2,3.39.89,5.47-1.39,8.73-.95,1.35-1.18,3.14-.43,4.55l3.37,6.26c.8,1.48-1.18,2.96-2.55,3.27-4.8.81.84,3.78-4.11,4.39-.73.08-1.48.11-2,.35.16,1.07,1.72,1.98,1.08,3.26-.43.86-2.26.96-2.62,1.28-.5.44.38,2.94-1.91,4.42-1.12.74-2.4.68-3.72.21-2.97-1.04-5.65-2.58-8.31-4.3-2.15-1.39-4.78-1.23-6.69.65l-9.78,9.58c-1.34,1.32-1.94,2.79-1.73,4.66.38,5.91,1.1,15.36,1.69,21.38.27,2.9.24,5.65-.58,8.37l4.93,9c8.68-9.29,15.72-19.74,20.91-31.29,1.39-3.29.96-12.3,3.91-16.21,3.58-4.75,7.13-9.25,10.23-14.36,1.99-3.29,3.64-1.91,3.79-1.91.55-.02,1.13-1.55,2.41-1.29,1.62.34.72,2.73,1.08,2.99,2.11,1.49,1.37,2.51.7,5.53,3.37,1.26-1.39,9.95-2.11,12.55-1.35,3.49-2.6,6.87-4.44,10.1-3.91,6.88-5.69,4.88-7.69,10.19-5.23,13.58-10.86,29.4-20.1,41.1,5.23-.48,10.32-1.76,15.17-3.81,3.04-1.28,5.98-2.88,8.72-4.73,2.72-1.84,5.28-3.95,7.6-6.27,2.32-2.32,4.43-4.88,6.27-7.6,1.85-2.74,3.44-5.67,4.73-8.71,2.67-6.33,4.03-13.05,4.03-19.98v-36.61c0-6.93-1.36-13.65-4.03-19.97-1.29-3.04-2.88-5.98-4.73-8.72-1.84-2.72-3.95-5.28-6.27-7.6-2.32-2.32-4.88-4.43-7.6-6.27Z"/>
  </g>
</svg>