<?xml version="1.0" encoding="UTF-8"?>
<svg id="Capa_2" data-name="Capa 2" xmlns="http://www.w3.org/2000/svg" viewBox="0 0 314.92 306.57">
  <defs>
    <style>
      .cls-1 {
        fill: #2e2e2e;
      }
    </style>
  </defs>
  <g id="Capa_2-2" data-name="Capa 2">
    <g>
      <rect class="cls-1" x="3.14" y="173.2" width="109.81" height="1.42"/>
      <rect class="cls-1" x="205.11" y="173.2" width="109.81" height="1.42"/>
      <path class="cls-1" d="M158.42,46.6c-1.36.37-1.34,1.61-1.7,2.77-.62-.3-.88-.96-.89-1.48-.03-1.9,2.09-1.07,2.41-3.42.18-1.77-1.63-3.49-3.39-2.27-.51.34-1.23,1.28-.93,2.05.32.8.66-1.49,2.3-1.12.74.17,1.12.74,1.12,1.47,0,1.75-3.12,1.03-2.23,4.33.39,1.45,2.68,2.12,3.21,1.69.77-.62-.73-1.69.09-4Z"/>
      <path class="cls-1" d="M178.41,43.09s0,0,0,0c4.12-.8,3.72-1.3,8.01,1.32.75-.78.52-1.89.06-2.66-1.39-2.31-6.03-.32-8.23.91-.23.13-.11.48.15.44Z"/>
      <path class="cls-1" d="M183.81,49.76c-1.53-1.09.83-3.59-.06-4.32-.67-.55-1.8-.12-2.37.3l2.06.16c-.41.68-.44,2.01-1.06,2.43-1.38.94-2.68-.15-4.23-.86.21.49,3.3,5.63,4.06,4.16.2-.38.17-.8.44-.85.75-.13,1.55.17,1.64-.41.04-.29-.22-.42-.5-.62Z"/>
      <path class="cls-1" d="M184.59,58.75c.89.04,1.72-.07,2.57-.45-.97-.58-2.02-.39-2.57.45Z"/>
      <path class="cls-1" d="M144.58,139.94c5.18,5.06,11.06,8.71,15.03,5.21,1.05-1.06,2.06-2.17,3.04-3.32,5.95-.4,11.63-1.8,16.88-4.02,18.9-8,32.17-26.71,32.17-48.53v-36.61c0-29.09-23.58-52.67-52.67-52.67s-52.67,23.58-52.67,52.67v36.61c0,2.69.2,5.33.59,7.91,2.11,14,9.72,26.19,20.57,34.3,5.06,3.79,10.83,6.68,17.07,8.46ZM139.05,136.57c-3.04-1.29-5.97-2.88-8.72-4.73-.55-.37-1.09-.75-1.62-1.14,1.69-1.07,3.57-2.12,5.64-3.3,1.49,2.32,4.59,6.6,8.25,10.53-1.2-.4-2.38-.86-3.56-1.35ZM107.71,89.28v-36.61c0-6.93,1.36-13.65,4.03-19.98,1.29-3.04,2.88-5.97,4.73-8.72,1.84-2.72,3.95-5.27,6.27-7.6,2.32-2.32,4.88-4.43,7.6-6.27,2.74-1.85,5.68-3.45,8.72-4.73,6.33-2.68,13.05-4.03,19.98-4.03s13.65,1.36,19.98,4.03c3.04,1.29,5.97,2.88,8.72,4.73,2.72,1.84,5.27,3.95,7.6,6.27,2.32,2.32,4.43,4.88,6.27,7.6,1.85,2.74,3.45,5.68,4.73,8.72,2.68,6.33,4.03,13.05,4.03,19.98v36.61c0,6.93-1.36,13.65-4.03,19.98-1.29,3.04-2.88,5.97-4.73,8.72-1.84,2.72-3.95,5.27-6.27,7.6-2.32,2.32-4.88,4.43-7.6,6.27-2.74,1.85-5.68,3.45-8.72,4.73-4.85,2.05-9.94,3.33-15.17,3.81,9.25-11.7,14.87-27.52,20.1-41.1,2-5.31,3.78-3.31,7.69-10.19,1.84-3.23,3.09-6.61,4.44-10.1.71-2.6,5.48-11.29,2.11-12.55.67-3.03,1.41-4.04-.7-5.53-.36-.25.54-2.65-1.08-2.98-1.28-.26-1.87,1.27-2.41,1.29-.15,0-1.8-1.38-3.79,1.91-3.1,5.11-6.65,9.61-10.23,14.36-2.94,3.91-2.51,12.92-3.9,16.21-5.19,11.55-12.23,22-20.91,31.29l-4.93-9c.82-2.72.85-5.47.58-8.37-.59-6.03-1.31-15.47-1.69-21.39-.21-1.87.39-3.34,1.73-4.65l9.77-9.59c1.91-1.87,4.55-2.04,6.7-.65,2.65,1.72,5.34,3.26,8.3,4.3,1.33.47,2.6.52,3.73-.21,2.28-1.48,1.41-3.99,1.9-4.42.37-.32,2.19-.42,2.62-1.28.64-1.28-.92-2.19-1.08-3.26.52-.24,1.27-.28,2-.35,4.95-.61-.69-3.58,4.11-4.39,1.37-.32,3.35-1.79,2.55-3.27l-3.37-6.27c-.76-1.41-.52-3.19.43-4.55,2.28-3.26,1.2-5.34,1.39-8.73,5.97-6.36-2.58-15.11-9.53-16.03-12.27-11.15-36.17-10.8-40.76,7.71-10.41-4.98-17.25,13.32-8.54,19.15-1.23,6.09,5.48,10.85,11.12,9.71-2.66,4.11-9.7,8.56-13.76,11.04-10.1,6.18-16.42,15.37-20.47,25.91-.17-1.69-.25-3.4-.25-5.12ZM160.57,62c-1.2-1.99-2.12-4.36-1.69-6.76.11-.6,1.61-.97.63-1.92-4.67,3.65-10.33-12.13-3.35-12.74,1.51-.1,2.75.87,3.28,2.39.87,2.51,3.53,3.94,5.97,2.67,3.79-2.39,2.03-4.45,6.85-6.43.78-.81-1.64-.71-1.48-1.66,1.88.05,3.56.05,5.19-.71,3.19,3.14,9.2,1.86,12.33-.74,2.08,9.48-3.68,9.9-1.27,14.91,1.45,3.14,4.75,6.67,1.85,7.61-1.61.56-3.9.73-3.2,3.16l-5.32,2c.17,1.61,3.01,3.46.98,3.78-2.8.44-.49,3.08-2.86,4.68-5.83,1.68-12.9-9.66-19-3.18-2.09,2.61-12.07,10.03-11.97,13.49,0,.03-.11,3.34-.11,3.34-1.59-.87-2.66-2.19-3.71-3.65-3.48-4.83-6.9-10.8-12.64-13.45,4.92-3.46,10.87-7.04,13.4-12.35,2.82-1.56,5.27-3.75,5.83-7.08.19-.88.1-1.79.92-2.63.8,3.72,2.75,7.68,6.48,8.66-.06,3.17.68,5.86,3.25,7.8h0c-.01-.43-.14-.83-.35-1.19ZM170.04,33.54c1.54.36,3.02.27,4.43-.1,1.4-.37,2.66-1.13,3.68-2.17.1-.1.2-.19.31-.29-.62,2.82-6.6,4.84-8.41,2.56ZM181.23,33.77c.83-.77,1.66-1.96,1.96-2.58.07.81-.4,2.18-1.33,2.99-1.41,1.23-4.01,1.62-4.01,1.62,0,0,2.56-1.27,3.37-2.03ZM138.12,41.66c-.94-.77-.95-4.91.91-6.5-.78,2.15-1.17,4.02-.91,6.5ZM121.18,78.53c12.02-8.36,18.68,6.59,20.09,16.61,2.45,12.17,10.72,23.46,15.24,34.88.76-1.97-.06-3.72-.63-5.55,8.45-9.04,15.33-19.42,20.72-30.58.86-1.78,1.32-3.43,1.51-5.35.74-4.91.78-10.56,4.38-14.31,2.4-2.65,4.21-5.65,6.17-8.64.75-1.15,3.46-5.89,4.25-5.69.34.09.39.51.22.92-2.09,5.09-5.01,9.5-7.98,14.36,2.59-.34,7.52-11.05,8.88-13.57,4.04-7.46,2.14.71-.5,5.62l-5.29,9.82c1.91.22,7.46-12.2,8.19-13.85.21-.48.6-1.02,1.1-1.11.86,5.17-4.97,12.45-6.37,17.47.66,0,1.09-.52,1.36-1.04,1.81-3.41,3.35-6.84,4.95-10.38,2.51-2.29-1.63,8.32-1.99,8.97-1.32,3.26-2.51,6.43-4.06,9.58-3.77,7.63-6.28,6.47-8.01,10.72-4.45,10.63-9.75,25.44-15.97,35.04-1.76,2.88-3.73,5.54-5.84,8.09-.39.47-.78.93-1.17,1.39-.62.72-1.24,1.42-1.88,2.13-1.12,1.24-2.88,1.17-4.23.56-2.04-1.03-3.97-2.28-5.8-3.72-.77-.6-1.52-1.23-2.25-1.89-11.38-10.25-18.87-27.35-26.08-39.52-.45-.82-.89-1.64-1.9-2.18-.12,2.84,2.98,6.78,4.02,9.74-12.03-4.4-10.36-21.98-1.1-28.52Z"/>
      <polygon class="cls-1" points="179.04 187.78 193.01 187.78 193.01 184.38 182.44 184.38 182.44 175.71 193.01 175.71 193.01 172.31 182.44 172.31 182.44 166.02 193.01 166.02 193.01 162.58 179.04 162.58 179.04 187.78"/>
      <polygon class="cls-1" points="35.85 295.55 25.24 271.22 14.68 295.81 4.65 272.54 0 272.54 14.63 306.49 25.25 282.1 35.85 306.49 50.46 272.54 45.81 272.54 35.85 295.55"/>
      <polygon class="cls-1" points="84.27 285.17 68.51 285.17 68.51 272.49 64.01 272.49 64.01 305.45 68.51 305.45 68.51 289.62 84.27 289.62 84.27 305.45 88.72 305.45 88.72 272.49 84.27 272.49 84.27 285.17"/>
      <rect class="cls-1" x="104.42" y="272.49" width="4.45" height="32.96"/>
      <path class="cls-1" d="M143.44,290.33c-.76-.95-1.73-1.81-2.91-2.6-1.18-.78-2.83-1.63-4.95-2.54-2.12-.91-3.62-1.75-4.5-2.51-.88-.77-1.32-1.65-1.32-2.64,0-1.15.5-2.09,1.51-2.82,1.01-.73,2.32-1.1,3.94-1.1,1.48,0,2.61.25,3.39.74s1.66,1.24,2.62,2.24l3.65-2.92c-1.22-1.59-2.76-2.77-4.61-3.54-1.85-.78-3.67-1.16-5.46-1.16-2.71,0-5.01.83-6.91,2.5-1.9,1.66-2.85,3.68-2.85,6.04,0,.98.17,1.9.51,2.77.34.86.87,1.73,1.6,2.6.73.87,1.59,1.62,2.58,2.25,1,.63,2.42,1.32,4.26,2.08,1.85.76,3.19,1.43,4.04,2.01.85.58,1.55,1.33,2.12,2.23.57.9.85,1.8.85,2.7,0,1.5-.54,2.73-1.63,3.71-1.09.98-2.45,1.47-4.09,1.47-3.38,0-5.89-1.85-7.53-5.56l-4.5,1.27c1.14,3.02,2.76,5.28,4.88,6.79,2.11,1.51,4.55,2.26,7.31,2.26s5.24-.97,7.23-2.9c1.99-1.93,2.99-4.27,2.99-7.01,0-1.17-.19-2.28-.56-3.34-.37-1.05-.93-2.05-1.69-3Z"/>
      <path class="cls-1" d="M176.63,275.13c-2.29-1.76-5.31-2.64-9.06-2.64h-6.62v32.96h4.45v-13.56c4.93.05,8.61-.88,11.04-2.79,2.42-1.91,3.64-4.29,3.64-7.12s-1.15-5.1-3.44-6.86ZM172.92,286.53c-1.63.92-4.14,1.4-7.52,1.44v-11.54c4.17,0,6.88.56,8.11,1.68,1.23,1.12,1.85,2.45,1.85,3.98,0,2.04-.81,3.51-2.44,4.44Z"/>
      <polygon class="cls-1" points="194.66 305.45 212.93 305.45 212.93 301 199.11 301 199.11 289.67 212.93 289.67 212.93 285.22 199.11 285.22 199.11 276.99 212.93 276.99 212.93 272.49 194.66 272.49 194.66 305.45"/>
      <path class="cls-1" d="M244.57,287.78c1.44-1.69,2.17-3.64,2.17-5.85,0-2.76-1.12-5.02-3.35-6.79-2.23-1.77-5.13-2.65-8.68-2.65h-7.14v32.96h4.5v-13.56h1.01l9.14,13.56h5.16l-9.58-14.11c3.06-.69,5.32-1.88,6.76-3.57ZM232.07,287.96v-11.49c2.5,0,4.4.16,5.69.48,1.29.32,2.33.92,3.1,1.81.78.89,1.16,2.03,1.16,3.43,0,3.98-3.32,5.91-9.96,5.77Z"/>
      <polygon class="cls-1" points="261.64 305.45 279.91 305.45 279.91 301 266.09 301 266.09 289.67 279.91 289.67 279.91 285.22 266.09 285.22 266.09 276.99 279.91 276.99 279.91 272.49 261.64 272.49 261.64 305.45"/>
      <path class="cls-1" d="M311.55,287.78c1.44-1.69,2.17-3.64,2.17-5.85,0-2.76-1.12-5.02-3.35-6.79-2.23-1.77-5.13-2.65-8.68-2.65h-7.14v32.96h4.5v-13.56h1.01l9.14,13.56h5.16l-9.58-14.11c3.06-.69,5.32-1.88,6.76-3.57ZM299.05,287.96v-11.49c2.5,0,4.4.16,5.69.48,1.29.32,2.33.92,3.1,1.81.78.89,1.16,2.03,1.16,3.43,0,3.98-3.32,5.91-9.96,5.77Z"/>
      <polygon class="cls-1" points="10.27 219.08 48.85 258.56 48.85 203.97 41.73 203.97 41.73 241.54 3.14 201.88 3.14 256.15 10.27 256.15 10.27 219.08"/>
      <polygon class="cls-1" points="175.68 241.54 137.1 201.88 137.1 256.15 144.23 256.15 144.23 219.08 182.81 258.56 182.81 203.97 175.68 203.97 175.68 241.54"/>
      <polygon class="cls-1" points="245.3 241.54 206.72 201.88 206.72 256.15 213.84 256.15 213.84 219.08 252.43 258.56 252.43 203.97 245.3 203.97 245.3 241.54"/>
      <polygon class="cls-1" points="294.34 224.97 281.52 203.97 273.63 203.97 290.67 232.31 290.67 256.15 297.8 256.15 297.8 232.23 314.92 203.97 307.02 203.97 294.34 224.97"/>
      <polygon class="cls-1" points="68.22 256.15 75.63 256.15 82.12 241.68 81.62 242.79 82.2 241.49 82.12 241.68 83.39 238.84 84.28 236.86 87.62 229.41 92.41 218.74 92.63 218.24 92.63 218.24 97.69 229.41 101.07 236.86 103.76 242.79 105.78 247.24 109.81 256.15 117.28 256.15 92.65 201.96 68.22 256.15"/>
      <polygon class="cls-1" points="92.28 219.02 92.63 218.24 92.41 218.74 92.28 219.02"/>
      <polygon class="cls-1" points="167.25 187.78 167.25 162.58 163.85 162.58 163.85 172.27 151.8 172.27 151.8 162.58 148.36 162.58 148.36 187.78 151.8 187.78 151.8 175.67 163.85 175.67 163.85 187.78 167.25 187.78"/>
      <polygon class="cls-1" points="128.34 187.78 131.74 187.78 131.74 166.02 137.75 166.02 137.75 162.58 122.34 162.58 122.34 166.02 128.34 166.02 128.34 187.78"/>
    </g>
  </g>
</svg>