<?xml version="1.0" encoding="UTF-8"?>
<svg id="Capa_2" data-name="Capa 2" xmlns="http://www.w3.org/2000/svg" viewBox="0 0 105.34 146.54">
  <defs>
    <style>
      .cls-1 {
        fill: #2e2e2e;
      }
    </style>
  </defs>
  <g id="Capa_2-2" data-name="Capa 2">
    <path class="cls-1" d="M52.06,46.6c-1.36.37-1.34,1.61-1.7,2.77-.62-.3-.88-.96-.89-1.48-.03-1.9,2.09-1.07,2.41-3.42.18-1.77-1.63-3.49-3.39-2.27-.51.34-1.23,1.28-.93,2.05.32.8.66-1.49,2.3-1.12.74.17,1.12.74,1.12,1.47,0,1.75-3.12,1.03-2.23,4.33.39,1.45,2.68,2.12,3.21,1.69.77-.62-.73-1.69.09-4Z"/>
    <path class="cls-1" d="M72.05,43.09s0,0,0,0c4.12-.8,3.72-1.3,8.01,1.32.75-.78.52-1.89.06-2.66-1.39-2.31-6.03-.32-8.23.91-.23.13-.11.48.15.44Z"/>
    <path class="cls-1" d="M77.45,49.76c-1.53-1.09.83-3.59-.06-4.32-.67-.55-1.8-.12-2.37.3l2.06.16c-.41.68-.44,2.01-1.06,2.43-1.38.94-2.68-.15-4.23-.86.21.49,3.3,5.63,4.06,4.16.2-.38.17-.8.44-.85.75-.13,1.55.17,1.64-.41.04-.29-.22-.42-.5-.62Z"/>
    <path class="cls-1" d="M78.23,58.75c.89.04,1.72-.07,2.57-.45-.97-.58-2.02-.39-2.57.45Z"/>
    <path class="cls-1" d="M38.22,139.94c5.18,5.06,11.06,8.71,15.03,5.21,1.05-1.06,2.06-2.17,3.04-3.32,5.95-.4,11.63-1.8,16.88-4.02,18.9-8,32.17-26.71,32.17-48.53v-36.61C105.34,23.58,81.76,0,52.67,0S0,23.58,0,52.67v36.61c0,2.69.2,5.33.59,7.91,2.11,14,9.72,26.19,20.57,34.3,5.06,3.79,10.83,6.68,17.07,8.46ZM32.69,136.57c-3.04-1.29-5.97-2.88-8.72-4.73-.55-.37-1.09-.75-1.62-1.14,1.69-1.07,3.57-2.12,5.64-3.3,1.49,2.32,4.59,6.6,8.25,10.53-1.2-.4-2.38-.86-3.56-1.35ZM1.35,89.28v-36.61c0-6.93,1.36-13.65,4.03-19.98,1.29-3.04,2.88-5.97,4.73-8.72,1.84-2.72,3.95-5.27,6.27-7.6,2.32-2.32,4.88-4.43,7.6-6.27,2.74-1.85,5.68-3.45,8.72-4.73,6.33-2.68,13.05-4.03,19.98-4.03s13.65,1.36,19.98,4.03c3.04,1.29,5.97,2.88,8.72,4.73,2.72,1.84,5.27,3.95,7.6,6.27,2.32,2.32,4.43,4.88,6.27,7.6,1.85,2.74,3.45,5.68,4.73,8.72,2.68,6.33,4.03,13.05,4.03,19.98v36.61c0,6.93-1.36,13.65-4.03,19.98-1.29,3.04-2.88,5.97-4.73,8.72-1.84,2.72-3.95,5.27-6.27,7.6-2.32,2.32-4.88,4.43-7.6,6.27-2.74,1.85-5.68,3.45-8.72,4.73-4.85,2.05-9.94,3.33-15.17,3.81,9.25-11.7,14.87-27.52,20.1-41.1,2-5.31,3.78-3.31,7.69-10.19,1.84-3.23,3.09-6.61,4.44-10.1.71-2.6,5.48-11.29,2.11-12.55.67-3.03,1.41-4.04-.7-5.53-.36-.25.54-2.65-1.08-2.98-1.28-.26-1.87,1.27-2.41,1.29-.15,0-1.8-1.38-3.79,1.91-3.1,5.11-6.65,9.61-10.23,14.36-2.94,3.91-2.51,12.92-3.9,16.21-5.19,11.55-12.23,22-20.91,31.29l-4.93-9c.82-2.72.85-5.47.58-8.37-.59-6.03-1.31-15.47-1.69-21.39-.21-1.87.39-3.34,1.73-4.65l9.77-9.59c1.91-1.87,4.55-2.04,6.7-.65,2.65,1.72,5.34,3.26,8.3,4.3,1.33.47,2.6.52,3.73-.21,2.28-1.48,1.41-3.99,1.9-4.42.37-.32,2.19-.42,2.62-1.28.64-1.28-.92-2.19-1.08-3.26.52-.24,1.27-.28,2-.35,4.95-.61-.69-3.58,4.11-4.39,1.37-.32,3.35-1.79,2.55-3.27l-3.37-6.27c-.76-1.41-.52-3.19.43-4.55,2.28-3.26,1.2-5.34,1.39-8.73,5.97-6.36-2.58-15.11-9.53-16.03-12.27-11.15-36.17-10.8-40.76,7.71-10.41-4.98-17.25,13.32-8.54,19.15-1.23,6.09,5.48,10.85,11.12,9.71-2.66,4.11-9.7,8.56-13.76,11.04-10.1,6.18-16.42,15.37-20.47,25.91-.17-1.69-.25-3.4-.25-5.12ZM54.21,62c-1.2-1.99-2.12-4.36-1.69-6.76.11-.6,1.61-.97.63-1.92-4.67,3.65-10.33-12.13-3.35-12.74,1.51-.1,2.75.87,3.28,2.39.87,2.51,3.53,3.94,5.97,2.67,3.79-2.39,2.03-4.45,6.85-6.43.78-.81-1.64-.71-1.48-1.66,1.88.05,3.56.05,5.19-.71,3.19,3.14,9.2,1.86,12.33-.74,2.08,9.48-3.68,9.9-1.27,14.91,1.45,3.14,4.75,6.67,1.85,7.61-1.61.56-3.9.73-3.2,3.16l-5.32,2c.17,1.61,3.01,3.46.98,3.78-2.8.44-.49,3.08-2.86,4.68-5.83,1.68-12.9-9.66-19-3.18-2.09,2.61-12.07,10.03-11.97,13.49,0,.03-.11,3.34-.11,3.34-1.59-.87-2.66-2.19-3.71-3.65-3.48-4.83-6.9-10.8-12.64-13.45,4.92-3.46,10.87-7.04,13.4-12.35,2.82-1.56,5.27-3.75,5.83-7.08.19-.88.1-1.79.92-2.63.8,3.72,2.75,7.68,6.48,8.66-.06,3.17.68,5.86,3.25,7.8h0c-.01-.43-.14-.83-.35-1.19ZM63.68,33.54c1.54.36,3.02.27,4.43-.1,1.4-.37,2.66-1.13,3.68-2.17.1-.1.2-.19.31-.29-.62,2.82-6.6,4.84-8.41,2.56ZM74.87,33.77c.83-.77,1.66-1.96,1.96-2.58.07.81-.4,2.18-1.33,2.99-1.41,1.23-4.01,1.62-4.01,1.62,0,0,2.56-1.27,3.37-2.03ZM31.76,41.66c-.94-.77-.95-4.91.91-6.5-.78,2.15-1.17,4.02-.91,6.5ZM14.82,78.53c12.02-8.36,18.68,6.59,20.09,16.61,2.45,12.17,10.72,23.46,15.24,34.88.76-1.97-.06-3.72-.63-5.55,8.45-9.04,15.33-19.42,20.72-30.58.86-1.78,1.32-3.43,1.51-5.35.74-4.91.78-10.56,4.38-14.31,2.4-2.65,4.21-5.65,6.17-8.64.75-1.15,3.46-5.89,4.25-5.69.34.09.39.51.22.92-2.09,5.09-5.01,9.5-7.98,14.36,2.59-.34,7.52-11.05,8.88-13.57,4.04-7.46,2.14.71-.5,5.62l-5.29,9.82c1.91.22,7.46-12.2,8.19-13.85.21-.48.6-1.02,1.1-1.11.86,5.17-4.97,12.45-6.37,17.47.66,0,1.09-.52,1.36-1.04,1.81-3.41,3.35-6.84,4.95-10.38,2.51-2.29-1.63,8.32-1.99,8.97-1.32,3.26-2.51,6.43-4.06,9.58-3.77,7.63-6.28,6.47-8.01,10.72-4.45,10.63-9.75,25.44-15.97,35.04-1.76,2.88-3.73,5.54-5.84,8.09-.39.47-.78.93-1.17,1.39-.62.72-1.24,1.42-1.88,2.13-1.12,1.24-2.88,1.17-4.23.56-2.04-1.03-3.97-2.28-5.8-3.72-.77-.6-1.52-1.23-2.25-1.89-11.38-10.25-18.87-27.35-26.08-39.52-.45-.82-.89-1.64-1.9-2.18-.12,2.84,2.98,6.78,4.02,9.74-12.03-4.4-10.36-21.98-1.1-28.52Z"/>
  </g>
</svg>