<?xml version="1.0" encoding="UTF-8"?>
<svg id="Capa_2" data-name="Capa 2" xmlns="http://www.w3.org/2000/svg" viewBox="0 0 332.27 123.83">
  <g id="Capa_2-2" data-name="Capa 2">
    <g>
      <g>
        <path d="M64.07,28.03s.02-.03.03-.04c0,.01-.02.03-.03.04Z"/>
        <path d="M44,39.38c-1.15.31-1.14,1.36-1.44,2.34-.53-.26-.75-.81-.75-1.25-.03-1.6,1.76-.91,2.04-2.89.15-1.5-1.38-2.95-2.86-1.92-.43.28-1.04,1.08-.78,1.73.27.68.56-1.26,1.94-.95.63.14.95.62.95,1.24,0,1.48-2.63.87-1.88,3.66.33,1.23,2.27,1.79,2.72,1.42.65-.53-.62-1.43.08-3.38Z"/>
        <path d="M60.89,36.41s0,0,0,0c3.48-.67,3.14-1.09,6.77,1.11.63-.66.44-1.6.05-2.25-1.18-1.95-5.09-.27-6.95.77-.2.11-.09.41.13.37Z"/>
        <path d="M65.45,42.05c-1.3-.92.7-3.04-.05-3.65-.57-.47-1.52-.1-2.01.25l1.74.13c-.35.57-.37,1.7-.89,2.06-1.17.8-2.27-.13-3.57-.72.17.41,2.79,4.76,3.43,3.52.17-.32.15-.68.38-.72.63-.11,1.31.14,1.39-.34.04-.24-.18-.35-.42-.52Z"/>
        <path d="M66.11,49.65c.75.03,1.45-.06,2.17-.38-.82-.49-1.71-.33-2.17.38Z"/>
        <path d="M44.51,0C19.93,0,0,19.93,0,44.51v30.93c0,2.27.17,4.5.5,6.68,1.78,11.83,8.22,22.13,17.38,28.98,4.28,3.2,9.15,5.65,14.42,7.15,4.38,4.27,9.35,7.36,12.71,4.4.89-.89,1.74-1.83,2.57-2.81,5.03-.34,9.83-1.52,14.26-3.39,15.98-6.76,27.19-22.58,27.19-41.01v-30.93C89.02,19.93,69.09,0,44.51,0ZM27.63,115.41c-2.57-1.09-5.05-2.43-7.37-4-.46-.31-.92-.64-1.37-.97,1.42-.91,3.02-1.79,4.77-2.79,1.26,1.96,3.88,5.58,6.98,8.9-1.01-.34-2.01-.72-3.01-1.14ZM44.09,121.74c-.95,1.05-2.43.99-3.58.47-1.73-.87-3.36-1.93-4.9-3.14-.65-.51-1.28-1.04-1.9-1.6-9.62-8.66-15.94-23.11-22.04-33.39-.38-.69-.75-1.38-1.6-1.84-.1,2.4,2.52,5.73,3.39,8.23-10.17-3.72-8.75-18.57-.93-24.11,10.16-7.07,15.78,5.57,16.98,14.04,2.07,10.29,9.06,19.83,12.88,29.48.64-1.67-.05-3.14-.54-4.69,7.14-7.64,12.96-16.41,17.51-25.84.73-1.5,1.11-2.9,1.27-4.52.62-4.15.66-8.92,3.71-12.1,2.03-2.24,3.56-4.78,5.21-7.3.64-.97,2.93-4.98,3.59-4.81.29.07.33.43.19.78-1.77,4.3-4.23,8.02-6.75,12.13,2.19-.28,6.35-9.34,7.5-11.47,3.41-6.31,1.81.6-.42,4.75l-4.47,8.3c1.62.19,6.3-10.31,6.92-11.7.18-.41.5-.86.93-.94.73,4.37-4.2,10.52-5.39,14.76.56,0,.92-.44,1.15-.88,1.53-2.88,2.83-5.78,4.18-8.77,2.12-1.93-1.38,7.03-1.68,7.58-1.11,2.76-2.12,5.43-3.44,8.1-3.19,6.45-5.31,5.47-6.77,9.06-3.76,8.99-8.24,21.5-13.5,29.61-1.49,2.43-3.15,4.68-4.93,6.84-.33.39-.66.79-.99,1.18-.52.61-1.05,1.2-1.59,1.8ZM46.11,53.4h0c-.01-.36-.11-.7-.3-1.01-1.01-1.68-1.79-3.68-1.43-5.71.09-.51,1.36-.82.53-1.62-3.95,3.09-8.73-10.25-2.83-10.77,1.28-.08,2.33.74,2.77,2.02.73,2.12,2.99,3.33,5.04,2.26,3.21-2.02,1.71-3.76,5.79-5.44.66-.69-1.39-.6-1.25-1.4,1.58.04,3.01.05,4.39-.6,2.7,2.66,7.77,1.57,10.42-.63,1.76,8.01-3.11,8.37-1.07,12.6,1.23,2.65,4.02,5.64,1.56,6.43-1.36.47-3.3.62-2.7,2.67l-4.49,1.69c.15,1.36,2.55,2.93.82,3.2-2.37.37-.42,2.6-2.41,3.95-4.93,1.42-10.9-8.16-16.06-2.68-1.77,2.21-10.2,8.48-10.11,11.4,0,.02-.1,2.82-.1,2.82-1.34-.74-2.25-1.85-3.13-3.08-2.94-4.08-5.83-9.13-10.68-11.37,4.16-2.92,9.18-5.95,11.33-10.44,2.38-1.32,4.45-3.17,4.93-5.99.16-.74.08-1.51.78-2.23.68,3.14,2.32,6.49,5.47,7.32-.05,2.68.58,4.95,2.74,6.59ZM53.81,28.34c1.3.31,2.55.23,3.74-.08,1.18-.31,2.25-.96,3.11-1.83.08-.08.17-.16.26-.25-.52,2.39-5.58,4.09-7.11,2.16ZM63.27,28.54c.7-.65,1.4-1.66,1.66-2.18.06.68-.34,1.84-1.12,2.52-1.19,1.04-3.39,1.37-3.39,1.37,0,0,2.16-1.08,2.85-1.72ZM87.88,75.45c0,5.86-1.15,11.54-3.41,16.88-1.09,2.57-2.43,5.05-4,7.37-1.55,2.3-3.33,4.46-5.3,6.42s-4.12,3.74-6.42,5.3c-2.32,1.57-4.8,2.91-7.37,4-4.1,1.73-8.4,2.81-12.82,3.22,7.81-9.89,12.57-23.26,16.99-34.74,1.69-4.49,3.19-2.8,6.5-8.61,1.55-2.73,2.61-5.58,3.75-8.53.6-2.2,4.63-9.54,1.78-10.6.56-2.56,1.19-3.41-.59-4.68-.3-.22.46-2.24-.91-2.52-1.08-.22-1.58,1.07-2.04,1.09-.13,0-1.52-1.16-3.2,1.61-2.62,4.32-5.62,8.12-8.65,12.14-2.49,3.3-2.12,10.92-3.3,13.7-4.39,9.76-10.33,18.59-17.67,26.45l-4.16-7.61c.7-2.3.72-4.62.49-7.07-.5-5.09-1.11-13.08-1.43-18.07-.18-1.58.33-2.82,1.46-3.93l8.26-8.1c1.61-1.58,3.84-1.73,5.66-.55,2.24,1.45,4.51,2.75,7.02,3.64,1.12.4,2.2.44,3.15-.18,1.93-1.25,1.19-3.37,1.61-3.74.31-.27,1.85-.36,2.21-1.08.54-1.08-.77-1.85-.91-2.75.44-.21,1.08-.23,1.69-.3,4.18-.52-.58-3.02,3.47-3.71,1.16-.27,2.83-1.51,2.16-2.76l-2.85-5.3c-.64-1.19-.44-2.7.36-3.84,1.93-2.75,1.01-4.51,1.18-7.38,5.04-5.38-2.18-12.77-8.05-13.55-10.37-9.42-30.56-9.13-34.45,6.51-8.8-4.2-14.57,11.26-7.22,16.18-1.04,5.15,4.63,9.17,9.4,8.21-2.25,3.48-8.2,7.23-11.63,9.33-8.54,5.22-13.88,12.99-17.3,21.89-.14-1.43-.21-2.87-.21-4.33v-30.93c0-5.86,1.15-11.54,3.41-16.88,1.09-2.57,2.43-5.05,4-7.37,1.55-2.3,3.33-4.46,5.3-6.42,1.96-1.96,4.12-3.75,6.42-5.3,2.32-1.57,4.8-2.91,7.37-4,5.35-2.26,11.03-3.41,16.88-3.41s11.54,1.15,16.88,3.41c2.57,1.09,5.05,2.43,7.37,4,2.3,1.55,4.46,3.33,6.42,5.3,1.96,1.96,3.75,4.12,5.3,6.42,1.57,2.32,2.91,4.8,4,7.37,2.26,5.35,3.41,11.03,3.41,16.88v30.93ZM26.84,35.21c-.79-.65-.8-4.15.77-5.49-.66,1.82-.99,3.4-.77,5.49Z"/>
      </g>
      <g>
        <path d="M236.33,11.09h9.86v2.43h-7.46v4.44h7.46v2.4h-7.46v6.12h7.46v2.4h-9.86V11.09Z"/>
        <g>
          <path d="M127.75,87.79l7.49,17.18,7.03-16.25h3.28l-10.31,23.97-7.49-17.22-7.49,17.22-10.33-23.97h3.28l7.08,16.43,7.46-17.36Z"/>
          <path d="M155.12,88.69h3.18v8.95h11.13v-8.95h3.14v23.27h-3.14v-11.18h-11.13v11.18h-3.18v-23.27Z"/>
          <path d="M183.65,88.69h3.14v23.27h-3.14v-23.27Z"/>
          <path d="M212.22,91.28l-2.58,2.06c-.68-.71-1.3-1.23-1.85-1.58-.55-.35-1.35-.52-2.4-.52-1.14,0-2.07.26-2.78.77s-1.07,1.18-1.07,1.99c0,.7.31,1.33.93,1.87.62.54,1.68,1.13,3.17,1.77,1.5.64,2.66,1.24,3.49,1.79.83.55,1.52,1.17,2.05,1.83.53.67.93,1.38,1.19,2.12.26.74.39,1.53.39,2.35,0,1.93-.7,3.58-2.11,4.95-1.41,1.36-3.11,2.04-5.11,2.04s-3.67-.53-5.16-1.6c-1.49-1.07-2.64-2.66-3.44-4.8l3.18-.9c1.16,2.62,2.93,3.93,5.32,3.93,1.16,0,2.12-.35,2.89-1.04.77-.69,1.15-1.57,1.15-2.62,0-.63-.2-1.27-.6-1.9-.4-.64-.9-1.16-1.5-1.58s-1.55-.89-2.85-1.42c-1.3-.53-2.31-1.02-3.01-1.47-.7-.44-1.31-.97-1.82-1.59-.51-.61-.89-1.23-1.13-1.83-.24-.61-.36-1.26-.36-1.95,0-1.67.67-3.09,2.01-4.26,1.34-1.17,2.97-1.76,4.88-1.76,1.27,0,2.55.27,3.85.82,1.3.55,2.39,1.38,3.25,2.5Z"/>
          <path d="M223.56,88.69h4.68c2.64,0,4.77.62,6.39,1.86,1.62,1.24,2.43,2.86,2.43,4.84s-.86,3.67-2.57,5.02c-1.71,1.35-4.31,2.01-7.79,1.97v9.57h-3.14v-23.27ZM226.7,91.46v8.15c2.39-.02,4.16-.36,5.31-1.01,1.15-.65,1.73-1.7,1.73-3.13,0-1.08-.44-2.02-1.31-2.81-.87-.79-2.78-1.19-5.73-1.19Z"/>
          <path d="M247.36,88.69h12.9v3.18h-9.76v5.81h9.76v3.14h-9.76v8h9.76v3.14h-12.9v-23.27Z"/>
          <path d="M270.59,88.69h5.04c2.51,0,4.55.62,6.13,1.87,1.58,1.25,2.37,2.85,2.37,4.79,0,1.56-.51,2.93-1.53,4.13-1.02,1.19-2.61,2.03-4.77,2.52l6.76,9.96h-3.65l-6.46-9.57h-.71v9.57h-3.18v-23.27ZM273.77,91.5v8.11c4.69.1,7.03-1.26,7.03-4.07,0-.99-.27-1.79-.82-2.42-.55-.63-1.28-1.05-2.19-1.28-.91-.23-2.25-.34-4.02-.34Z"/>
          <path d="M294.65,88.69h12.9v3.18h-9.76v5.81h9.76v3.14h-9.76v8h9.76v3.14h-12.9v-23.27Z"/>
          <path d="M317.88,88.69h5.04c2.51,0,4.55.62,6.13,1.87,1.58,1.25,2.37,2.85,2.37,4.79,0,1.56-.51,2.93-1.53,4.13-1.02,1.19-2.61,2.03-4.77,2.52l6.76,9.96h-3.65l-6.46-9.57h-.71v9.57h-3.18v-23.27ZM321.06,91.5v8.11c4.69.1,7.03-1.26,7.03-4.07,0-.99-.27-1.79-.82-2.42-.55-.63-1.28-1.05-2.19-1.28-.91-.23-2.25-.34-4.02-.34Z"/>
        </g>
        <g>
          <path d="M112.15,38.83l27.24,28v-26.52h5.03v38.55l-27.24-27.87v26.17h-5.03v-38.31Z"/>
          <path d="M206.72,38.83l27.24,28v-26.52h5.03v38.55l-27.24-27.87v26.17h-5.03v-38.31Z"/>
          <path d="M255.87,38.83l27.24,28v-26.52h5.03v38.55l-27.24-27.87v26.17h-5.03v-38.31Z"/>
          <path d="M303.12,40.31h5.57l9.05,14.83,8.95-14.83h5.58l-12.09,19.95v16.89h-5.03v-16.83l-12.03-20.01Z"/>
          <g>
            <path d="M175.34,38.89l-17.25,38.26h5.23l4.23-9.43.41-.92-.06.14.9-2.01.63-1.4,2.36-5.26,3.54-7.88,3.57,7.88,2.38,5.26,1.9,4.19,1.43,3.14,2.85,6.28h5.27l-17.39-38.26ZM175.08,50.93l.24-.55h0s-.24.55-.24.55Z"/>
            <polygon points="163.32 77.15 167.9 66.94 167.55 67.72 163.32 77.15"/>
          </g>
        </g>
        <path d="M214.67,11.09h2.43v6.85h8.51v-6.85h2.4v17.8h-2.4v-8.55h-8.51v8.55h-2.43V11.09Z"/>
        <path d="M196.3,11.09h10.88v2.43h-4.25v15.37h-2.4v-15.37h-4.23v-2.43Z"/>
        <rect x="112.15" y="18.59" width="77.53" height="1"/>
        <rect x="254.74" y="18.59" width="77.53" height="1"/>
      </g>
    </g>
  </g>
</svg>