<?xml version="1.0" encoding="UTF-8"?>
<svg id="Capa_2" data-name="Capa 2" xmlns="http://www.w3.org/2000/svg" viewBox="0 0 222.34 101.66">
  <defs>
    <style>
      .cls-1 {
        fill: #fff;
      }
    </style>
  </defs>
  <g id="Capa_2-2" data-name="Capa 2">
    <g>
      <path class="cls-1" d="M126.41,0h9.86v2.43h-7.46v4.44h7.46v2.4h-7.46v6.12h7.46v2.4h-9.86V0Z"/>
      <g>
        <path class="cls-1" d="M17.82,76.71l7.49,17.18,7.03-16.25h3.28l-10.31,23.97-7.49-17.22-7.49,17.22L0,77.64h3.28l7.08,16.43,7.46-17.36Z"/>
        <path class="cls-1" d="M45.19,77.6h3.18v8.95h11.13v-8.95h3.14v23.27h-3.14v-11.18h-11.13v11.18h-3.18v-23.27Z"/>
        <path class="cls-1" d="M73.72,77.6h3.14v23.27h-3.14v-23.27Z"/>
        <path class="cls-1" d="M102.29,80.2l-2.58,2.06c-.68-.71-1.3-1.23-1.85-1.58-.55-.35-1.35-.52-2.4-.52-1.14,0-2.07.26-2.78.77s-1.07,1.18-1.07,1.99c0,.7.31,1.33.93,1.87.62.54,1.68,1.13,3.17,1.77,1.5.64,2.66,1.24,3.49,1.79.83.55,1.52,1.17,2.05,1.83.53.67.93,1.38,1.19,2.12.26.74.39,1.53.39,2.35,0,1.93-.7,3.58-2.11,4.95-1.41,1.36-3.11,2.04-5.11,2.04s-3.67-.53-5.16-1.6c-1.49-1.07-2.64-2.66-3.44-4.8l3.18-.9c1.16,2.62,2.93,3.93,5.32,3.93,1.16,0,2.12-.35,2.89-1.04.77-.69,1.15-1.57,1.15-2.62,0-.63-.2-1.27-.6-1.9-.4-.64-.9-1.16-1.5-1.58s-1.55-.89-2.85-1.42c-1.3-.53-2.31-1.02-3.01-1.47-.7-.44-1.31-.97-1.82-1.59-.51-.61-.89-1.23-1.13-1.83-.24-.61-.36-1.26-.36-1.95,0-1.67.67-3.09,2.01-4.26,1.34-1.17,2.97-1.76,4.88-1.76,1.27,0,2.55.27,3.85.82,1.3.55,2.39,1.38,3.25,2.5Z"/>
        <path class="cls-1" d="M113.63,77.6h4.68c2.64,0,4.77.62,6.39,1.86,1.62,1.24,2.43,2.86,2.43,4.84s-.86,3.67-2.57,5.02c-1.71,1.35-4.31,2.01-7.79,1.97v9.57h-3.14v-23.27ZM116.77,80.38v8.15c2.39-.02,4.16-.36,5.31-1.01,1.15-.65,1.73-1.7,1.73-3.13,0-1.08-.44-2.02-1.31-2.81-.87-.79-2.78-1.19-5.73-1.19Z"/>
        <path class="cls-1" d="M137.43,77.6h12.9v3.18h-9.76v5.81h9.76v3.14h-9.76v8h9.76v3.14h-12.9v-23.27Z"/>
        <path class="cls-1" d="M160.67,77.6h5.04c2.51,0,4.55.62,6.13,1.87,1.58,1.25,2.37,2.85,2.37,4.79,0,1.56-.51,2.93-1.53,4.13-1.02,1.19-2.61,2.03-4.77,2.52l6.76,9.96h-3.65l-6.46-9.57h-.71v9.57h-3.18v-23.27ZM163.84,80.41v8.11c4.69.1,7.03-1.26,7.03-4.07,0-.99-.27-1.79-.82-2.42-.55-.63-1.28-1.05-2.19-1.28-.91-.23-2.25-.34-4.02-.34Z"/>
        <path class="cls-1" d="M184.72,77.6h12.9v3.18h-9.76v5.81h9.76v3.14h-9.76v8h9.76v3.14h-12.9v-23.27Z"/>
        <path class="cls-1" d="M207.96,77.6h5.04c2.51,0,4.55.62,6.13,1.87,1.58,1.25,2.37,2.85,2.37,4.79,0,1.56-.51,2.93-1.53,4.13-1.02,1.19-2.61,2.03-4.77,2.52l6.76,9.96h-3.65l-6.46-9.57h-.71v9.57h-3.18v-23.27ZM211.13,80.41v8.11c4.69.1,7.03-1.26,7.03-4.07,0-.99-.27-1.79-.82-2.42-.55-.63-1.28-1.05-2.19-1.28-.91-.23-2.25-.34-4.02-.34Z"/>
      </g>
      <g>
        <path class="cls-1" d="M2.22,27.75l27.24,28v-26.52h5.03v38.55L7.25,39.89v26.17H2.22V27.75Z"/>
        <path class="cls-1" d="M96.79,27.75l27.24,28v-26.52h5.03v38.55l-27.24-27.87v26.17h-5.03V27.75Z"/>
        <path class="cls-1" d="M145.95,27.75l27.24,28v-26.52h5.03v38.55l-27.24-27.87v26.17h-5.03V27.75Z"/>
        <path class="cls-1" d="M193.19,29.22h5.57l9.05,14.83,8.95-14.83h5.58l-12.09,19.95v16.89h-5.03v-16.83l-12.03-20.01Z"/>
        <g>
          <path class="cls-1" d="M65.41,27.81l-17.25,38.26h5.23l4.23-9.43.41-.92-.06.14.9-2.01.63-1.4,2.36-5.26,3.54-7.88,3.57,7.88,2.38,5.26,1.9,4.19,1.43,3.14,2.85,6.28h5.27l-17.39-38.26ZM65.15,39.85l.24-.55h0s-.24.55-.24.55Z"/>
          <polygon class="cls-1" points="53.4 66.06 57.98 55.85 57.62 56.64 53.4 66.06"/>
        </g>
      </g>
      <path class="cls-1" d="M104.74,0h2.43v6.85h8.51V0h2.4v17.8h-2.4v-8.55h-8.51v8.55h-2.43V0Z"/>
      <path class="cls-1" d="M86.37,0h10.88v2.43h-4.25v15.37h-2.4V2.43h-4.23V0Z"/>
      <rect class="cls-1" x="2.22" y="7.5" width="77.53" height="1"/>
      <rect class="cls-1" x="144.81" y="7.5" width="77.53" height="1"/>
    </g>
  </g>
</svg>