<?xml version="1.0" encoding="UTF-8"?>
<svg id="Capa_2" data-name="Capa 2" xmlns="http://www.w3.org/2000/svg" viewBox="0 0 314.92 143.99">
  <defs>
    <style>
      .cls-1 {
        fill: #2e2e2e;
      }
    </style>
  </defs>
  <g id="Capa_2-2" data-name="Capa 2">
    <rect class="cls-1" x="3.14" y="10.62" width="109.81" height="1.42"/>
    <rect class="cls-1" x="205.11" y="10.62" width="109.81" height="1.42"/>
    <polygon class="cls-1" points="179.04 25.21 193.01 25.21 193.01 21.8 182.44 21.8 182.44 13.14 193.01 13.14 193.01 9.73 182.44 9.73 182.44 3.44 193.01 3.44 193.01 0 179.04 0 179.04 25.21"/>
    <polygon class="cls-1" points="35.85 132.98 25.24 108.65 14.68 133.24 4.65 109.97 0 109.97 14.63 143.91 25.25 119.53 35.85 143.91 50.46 109.97 45.81 109.97 35.85 132.98"/>
    <polygon class="cls-1" points="84.27 122.59 68.51 122.59 68.51 109.91 64.01 109.91 64.01 142.88 68.51 142.88 68.51 127.04 84.27 127.04 84.27 142.88 88.72 142.88 88.72 109.91 84.27 109.91 84.27 122.59"/>
    <rect class="cls-1" x="104.42" y="109.91" width="4.45" height="32.96"/>
    <path class="cls-1" d="M143.44,127.75c-.76-.95-1.73-1.81-2.91-2.6-1.18-.78-2.83-1.63-4.95-2.54-2.12-.91-3.62-1.75-4.5-2.51-.88-.77-1.32-1.65-1.32-2.64,0-1.15.5-2.09,1.51-2.82,1.01-.73,2.32-1.1,3.94-1.1,1.48,0,2.61.25,3.39.74s1.66,1.24,2.62,2.24l3.65-2.92c-1.22-1.59-2.76-2.77-4.61-3.54-1.85-.78-3.67-1.16-5.46-1.16-2.71,0-5.01.83-6.91,2.5-1.9,1.66-2.85,3.68-2.85,6.04,0,.98.17,1.9.51,2.77.34.86.87,1.73,1.6,2.6.73.87,1.59,1.62,2.58,2.25,1,.63,2.42,1.32,4.26,2.08,1.85.76,3.19,1.43,4.04,2.01.85.58,1.55,1.33,2.12,2.23.57.9.85,1.8.85,2.7,0,1.5-.54,2.73-1.63,3.71-1.09.98-2.45,1.47-4.09,1.47-3.38,0-5.89-1.85-7.53-5.56l-4.5,1.27c1.14,3.02,2.76,5.28,4.88,6.79,2.11,1.51,4.55,2.26,7.31,2.26s5.24-.97,7.23-2.9c1.99-1.93,2.99-4.27,2.99-7.01,0-1.17-.19-2.28-.56-3.34-.37-1.05-.93-2.05-1.69-3Z"/>
    <path class="cls-1" d="M176.63,112.55c-2.29-1.76-5.31-2.64-9.06-2.64h-6.62v32.96h4.45v-13.56c4.93.05,8.61-.88,11.04-2.79,2.42-1.91,3.64-4.29,3.64-7.12s-1.15-5.1-3.44-6.86ZM172.92,123.95c-1.63.92-4.14,1.4-7.52,1.44v-11.54c4.17,0,6.88.56,8.11,1.68,1.23,1.12,1.85,2.45,1.85,3.98,0,2.04-.81,3.51-2.44,4.44Z"/>
    <polygon class="cls-1" points="194.66 142.88 212.93 142.88 212.93 138.43 199.11 138.43 199.11 127.09 212.93 127.09 212.93 122.64 199.11 122.64 199.11 114.42 212.93 114.42 212.93 109.91 194.66 109.91 194.66 142.88"/>
    <path class="cls-1" d="M244.57,125.2c1.44-1.69,2.17-3.64,2.17-5.85,0-2.76-1.12-5.02-3.35-6.79-2.23-1.77-5.13-2.65-8.68-2.65h-7.14v32.96h4.5v-13.56h1.01l9.14,13.56h5.16l-9.58-14.11c3.06-.69,5.32-1.88,6.76-3.57ZM232.07,125.39v-11.49c2.5,0,4.4.16,5.69.48,1.29.32,2.33.92,3.1,1.81.78.89,1.16,2.03,1.16,3.43,0,3.98-3.32,5.91-9.96,5.77Z"/>
    <polygon class="cls-1" points="261.64 142.88 279.91 142.88 279.91 138.43 266.09 138.43 266.09 127.09 279.91 127.09 279.91 122.64 266.09 122.64 266.09 114.42 279.91 114.42 279.91 109.91 261.64 109.91 261.64 142.88"/>
    <path class="cls-1" d="M311.55,125.2c1.44-1.69,2.17-3.64,2.17-5.85,0-2.76-1.12-5.02-3.35-6.79-2.23-1.77-5.13-2.65-8.68-2.65h-7.14v32.96h4.5v-13.56h1.01l9.14,13.56h5.16l-9.58-14.11c3.06-.69,5.32-1.88,6.76-3.57ZM299.05,125.39v-11.49c2.5,0,4.4.16,5.69.48,1.29.32,2.33.92,3.1,1.81.78.89,1.16,2.03,1.16,3.43,0,3.98-3.32,5.91-9.96,5.77Z"/>
    <polygon class="cls-1" points="10.27 56.51 48.85 95.99 48.85 41.39 41.73 41.39 41.73 78.96 3.14 39.3 3.14 93.57 10.27 93.57 10.27 56.51"/>
    <polygon class="cls-1" points="175.68 78.96 137.1 39.3 137.1 93.57 144.23 93.57 144.23 56.51 182.81 95.99 182.81 41.39 175.68 41.39 175.68 78.96"/>
    <polygon class="cls-1" points="245.3 78.96 206.72 39.3 206.72 93.57 213.84 93.57 213.84 56.51 252.43 95.99 252.43 41.39 245.3 41.39 245.3 78.96"/>
    <polygon class="cls-1" points="294.34 62.4 281.52 41.39 273.63 41.39 290.67 69.73 290.67 93.57 297.8 93.57 297.8 69.65 314.92 41.39 307.02 41.39 294.34 62.4"/>
    <polygon class="cls-1" points="68.22 93.57 75.63 93.57 82.12 79.11 81.62 80.22 82.2 78.92 82.12 79.11 83.39 76.26 84.28 74.28 87.62 66.84 92.41 56.16 92.63 55.67 92.63 55.67 97.69 66.84 101.07 74.28 103.76 80.22 105.78 84.67 109.81 93.57 117.28 93.57 92.65 39.39 68.22 93.57"/>
    <polygon class="cls-1" points="92.28 56.44 92.63 55.67 92.41 56.16 92.28 56.44"/>
    <polygon class="cls-1" points="167.25 25.21 167.25 0 163.85 0 163.85 9.7 151.8 9.7 151.8 0 148.36 0 148.36 25.21 151.8 25.21 151.8 13.1 163.85 13.1 163.85 25.21 167.25 25.21"/>
    <polygon class="cls-1" points="128.34 25.21 131.74 25.21 131.74 3.44 137.75 3.44 137.75 0 122.34 0 122.34 3.44 128.34 3.44 128.34 25.21"/>
  </g>
</svg>