<?xml version="1.0" encoding="UTF-8"?>
<svg id="Capa_2" xmlns="http://www.w3.org/2000/svg" version="1.1" viewBox="0 0 333.5 126.2">
  <!-- Generator: Adobe Illustrator 30.1.0, SVG Export Plug-In . SVG Version: 2.1.1 Build 65)  -->
  <defs>
    <style>
      .st0 {
        fill: #fff;
      }
    </style>
  </defs>
  <g id="Capa_2-2">
    <g>
      <path class="st0" d="M222.9-201.8h9.9v2.4h-7.5v4.4h7.5v2.4h-7.5v6.1h7.5v2.4h-9.9v-17.8Z"/>
      <g>
        <path class="st0" d="M114.3-125.1l7.5,17.2,7-16.2h3.3l-10.3,24-7.5-17.2-7.5,17.2-10.3-24h3.3l7.1,16.4,7.5-17.4Z"/>
        <path class="st0" d="M141.7-124.2h3.2v8.9h11.1v-8.9h3.1v23.3h-3.1v-11.2h-11.1v11.2h-3.2s0-23.3,0-23.3Z"/>
        <path class="st0" d="M170.2-124.2h3.1v23.3h-3.1s0-23.3,0-23.3Z"/>
        <path class="st0" d="M198.8-121.6l-2.6,2.1c-.7-.7-1.3-1.2-1.9-1.6s-1.4-.5-2.4-.5-2.1.3-2.8.8-1.1,1.2-1.1,2,.3,1.3.9,1.9,1.7,1.1,3.2,1.8c1.5.6,2.7,1.2,3.5,1.8s1.5,1.2,2.1,1.8c.5.7.9,1.4,1.2,2.1.3.7.4,1.5.4,2.3,0,1.9-.7,3.6-2.1,4.9-1.4,1.4-3.1,2-5.1,2s-3.7-.5-5.2-1.6-2.6-2.7-3.4-4.8l3.2-.9c1.2,2.6,2.9,3.9,5.3,3.9s2.1-.3,2.9-1,1.1-1.6,1.1-2.6-.2-1.3-.6-1.9c-.4-.6-.9-1.2-1.5-1.6s-1.6-.9-2.9-1.4-2.3-1-3-1.5c-.7-.4-1.3-1-1.8-1.6-.5-.6-.9-1.2-1.1-1.8-.2-.6-.4-1.3-.4-1.9,0-1.7.7-3.1,2-4.3,1.3-1.2,3-1.8,4.9-1.8s2.6.3,3.9.8,2.4,1.4,3.2,2.5h0Z"/>
        <path class="st0" d="M210.1-124.2h4.7c2.6,0,4.8.6,6.4,1.9s2.4,2.9,2.4,4.8-.9,3.7-2.6,5-4.3,2-7.8,2v9.6h-3.1v-23.3h0ZM213.3-121.5v8.2c2.4,0,4.2-.4,5.3-1s1.7-1.7,1.7-3.1-.4-2-1.3-2.8-2.8-1.2-5.7-1.2h0Z"/>
        <path class="st0" d="M233.9-124.2h12.9v3.2h-9.8v5.8h9.8v3.1h-9.8v8h9.8v3.1h-12.9v-23.3h0Z"/>
        <path class="st0" d="M257.2-124.2h5c2.5,0,4.5.6,6.1,1.9,1.6,1.2,2.4,2.8,2.4,4.8s-.5,2.9-1.5,4.1c-1,1.2-2.6,2-4.8,2.5l6.8,10h-3.6l-6.5-9.6h-.7v9.6h-3.2v-23.3h0ZM260.3-121.4v8.1c4.7,0,7-1.3,7-4.1s-.3-1.8-.8-2.4c-.5-.6-1.3-1.1-2.2-1.3-.9-.2-2.2-.3-4-.3Z"/>
        <path class="st0" d="M281.2-124.2h12.9v3.2h-9.8v5.8h9.8v3.1h-9.8v8h9.8v3.1h-12.9s0-23.3,0-23.3Z"/>
        <path class="st0" d="M304.5-124.2h5c2.5,0,4.5.6,6.1,1.9,1.6,1.2,2.4,2.8,2.4,4.8s-.5,2.9-1.5,4.1c-1,1.2-2.6,2-4.8,2.5l6.8,10h-3.6l-6.5-9.6h-.7v9.6h-3.2v-23.3h0ZM307.6-121.4v8.1c4.7,0,7-1.3,7-4.1s-.3-1.8-.8-2.4c-.5-.6-1.3-1.1-2.2-1.3-.9-.2-2.2-.3-4-.3Z"/>
      </g>
      <g>
        <path class="st0" d="M98.7-174.1l27.2,28v-26.5h5v38.5l-27.2-27.9v26.2h-5v-38.3h0Z"/>
        <path class="st0" d="M193.3-174.1l27.2,28v-26.5h5v38.5l-27.2-27.9v26.2h-5v-38.3h0Z"/>
        <path class="st0" d="M242.4-174.1l27.2,28v-26.5h5v38.5l-27.2-27.9v26.2h-5v-38.3h0Z"/>
        <path class="st0" d="M289.7-172.6h5.6l9,14.8,9-14.8h5.6l-12.1,20v16.9h-5v-16.8l-12-20h0Z"/>
        <g>
          <path class="st0" d="M161.9-174l-17.2,38.3h5.2l4.2-9.4.4-.9h0c0,.1.9-1.9.9-1.9l.6-1.4,2.4-5.3,3.5-7.9,3.6,7.9,2.4,5.3,1.9,4.2,1.4,3.1,2.9,6.3h5.3l-17.4-38.3h0ZM161.6-162l.2-.5h0l-.2.5Z"/>
          <polygon class="st0" points="149.9 -135.8 154.5 -146 154.1 -145.2 149.9 -135.8"/>
        </g>
      </g>
      <path class="st0" d="M201.2-201.8h2.4v6.8h8.5v-6.9h2.4v17.8h-2.4v-8.5h-8.5v8.5h-2.4v-17.8Z"/>
      <path class="st0" d="M182.9-201.8h10.9v2.4h-4.2v15.4h-2.4v-15.4h-4.2v-2.4h0Z"/>
      <rect class="st0" x="98.7" y="-194.3" width="77.5" height="1"/>
      <rect class="st0" x="241.3" y="-194.3" width="77.5" height="1"/>
    </g>
    <path class="st0" d="M44.1-184.7c-1.2.3-2.4.4-3.7,0,1.5,1.9,6.6.2,7.1-2.2,0,0-.2.2-.2.2-.9.9-1.9,1.5-3.1,1.8h0Z"/>
    <path class="st0" d="M51.5-186.6c-.2.5-.9,1.5-1.7,2.2-.7.6-2.6,1.6-2.8,1.7.2,0,2.2-.4,3.3-1.4.8-.7,1.2-1.8,1.1-2.5h0Z"/>
    <path class="st0" d="M51.7-130.6c1.5-3.6,3.6-2.6,6.8-9.1,1.3-2.7,2.3-5.3,3.4-8.1.3-.5,3.8-9.5,1.7-7.6-1.4,3-2.7,5.9-4.2,8.8-.2.4-.6.9-1.2.9,1.2-4.2,6.1-10.4,5.4-14.8-.4,0-.8.5-.9.9-.6,1.4-5.3,11.9-6.9,11.7l4.5-8.3c2.2-4.1,3.8-11,.4-4.7-1.2,2.1-5.3,11.2-7.5,11.5,2.5-4.1,5-7.8,6.7-12.1.1-.3,0-.7-.2-.8-.7-.2-2.9,3.8-3.6,4.8-1.7,2.5-3.2,5.1-5.2,7.3-3,3.2-3.1,7.9-3.7,12.1-.2,1.6-.5,3-1.3,4.5-4.5,9.4-10.4,18.2-17.5,25.8.5,1.6,1.2,3,.5,4.7-3.8-9.7-10.8-19.2-12.9-29.5-1.2-8.5-6.8-21.1-17-14-7.8,5.5-9.2,20.4.9,24.1-.9-2.5-3.5-5.8-3.4-8.2.9.5,1.2,1.2,1.6,1.8,6.1,10.3,12.4,24.7,22,33.4.6.6,1.2,1.1,1.9,1.6,1.5,1.2,3.2,2.3,4.9,3.1,1.2.5,2.6.6,3.6-.5.5-.6,1.1-1.2,1.6-1.8.3-.4.7-.8,1-1.2,1.8-2.2,3.5-4.4,4.9-6.8,5.3-8.1,9.7-20.6,13.5-29.6h0Z"/>
    <path class="st0" d="M29.9-166.1c-3.2-.8-4.8-4.2-5.5-7.3-.7.7-.6,1.5-.8,2.2-.5,2.8-2.5,4.7-4.9,6-2.1,4.5-7.2,7.5-11.3,10.5,4.9,2.2,7.7,7.3,10.7,11.4.9,1.2,1.8,2.3,3.1,3.1,0,0,0-2.8,0-2.8,0-2.9,8.3-9.2,10.1-11.4,5.2-5.5,11.1,4.1,16.1,2.7,2-1.3,0-3.6,2.4-4,1.7-.3-.7-1.8-.8-3.2l4.5-1.7c-.6-2,1.3-2.2,2.7-2.7,2.4-.8-.3-3.8-1.6-6.4-2-4.2,2.8-4.6,1.1-12.6-2.7,2.2-7.7,3.3-10.4.6-1.4.6-2.8.6-4.4.6-.1.8,1.9.7,1.2,1.4-4.1,1.7-2.6,3.4-5.8,5.4-2,1.1-4.3-.1-5-2.3-.4-1.3-1.5-2.1-2.8-2-5.9.5-1.1,13.9,2.8,10.8.8.8-.4,1.1-.5,1.6-.4,2,.4,4,1.4,5.7.2.3.3.7.3,1-2.2-1.6-2.8-3.9-2.7-6.6ZM51.1-170c-.2,0-.2.4-.4.7-.6,1.2-3.3-3.1-3.4-3.5,1.3.6,2.4,1.5,3.6.7.5-.4.5-1.5.9-2.1h-1.7c.5-.5,1.4-.9,2-.4.8.6-1.2,2.7,0,3.7.2.2.5.3.4.5,0,.5-.8.2-1.4.3h0ZM54.9-163.7c-.7.3-1.4.4-2.2.4.5-.7,1.3-.9,2.2-.4ZM47.3-176.9c1.9-1,5.8-2.7,7-.8.4.7.6,1.6,0,2.2-3.6-2.2-3.3-1.8-6.8-1.1h0c-.2,0-.3-.3-.1-.4ZM30.5-170.2c-.5.4-2.4-.2-2.7-1.4-.8-2.8,1.9-2.2,1.9-3.7s-.3-1.1-1-1.2c-1.4-.3-1.7,1.6-1.9,1-.3-.7.3-1.5.8-1.7,1.5-1,3,.4,2.9,1.9-.3,2-2.1,1.3-2,2.9,0,.4.2,1,.8,1.2.3-1,.3-2,1.4-2.3-.7,2,.6,2.8,0,3.4h0Z"/>
    <path class="st0" d="M31.1-214.1c-25.2,0-45.7,20.5-45.7,45.7v30.9c0,2.3.2,4.6.5,6.9,1.8,11.9,8.1,22.5,17.8,29.8,4.4,3.3,9.3,5.7,14.5,7.3,3.9,3.8,7.4,5.7,10.2,5.7s2.8-.5,3.9-1.5c.8-.8,1.5-1.6,2.3-2.5,4.9-.4,9.6-1.6,14.1-3.4,17-7.2,27.9-23.7,27.9-42.1v-30.9c0-25.2-20.5-45.7-45.7-45.7ZM75.6-137.5c0,18.4-11.2,34.3-27.2,41-4.4,1.9-9.2,3.1-14.3,3.4-.8,1-1.7,1.9-2.6,2.8-3.3,3-8.3-.1-12.7-4.4-5.3-1.5-10.1-3.9-14.4-7.2-9.2-6.8-15.6-17.2-17.4-29-.3-2.2-.5-4.4-.5-6.7v-30.9c0-24.6,19.9-44.5,44.5-44.5s44.5,19.9,44.5,44.5v30.9Z"/>
    <path class="st0" d="M5.5-102.5c.5.3.9.7,1.4,1,2.3,1.6,4.8,2.9,7.4,4,1,.4,2,.8,3,1.1-3.1-3.3-5.7-6.9-7-8.9-1.8,1-3.4,1.9-4.8,2.8Z"/>
    <path class="st0" d="M55.3-204.4c-2.3-1.6-4.8-2.9-7.4-4-5.3-2.3-11-3.4-16.9-3.4s-11.5,1.1-16.9,3.4c-2.6,1.1-5.1,2.4-7.4,4-2.3,1.6-4.5,3.3-6.4,5.3-2,2-3.7,4.1-5.3,6.4-1.6,2.3-2.9,4.8-4,7.4-2.3,5.3-3.4,11-3.4,16.9v30.9c0,1.4,0,2.9.2,4.3,3.4-8.9,8.8-16.7,17.3-21.9,3.4-2.1,9.4-5.9,11.6-9.3-4.8,1-10.4-3.1-9.4-8.2-7.4-4.9-1.6-20.4,7.2-16.2,3.9-15.6,24.1-15.9,34.5-6.5,5.9.8,13.1,8.2,8,13.5-.2,2.9.8,4.6-1.2,7.4-.8,1.1-1,2.7-.4,3.8l2.8,5.3c.7,1.2-1,2.5-2.2,2.8-4.1.7.7,3.2-3.5,3.7-.6,0-1.2,0-1.7.3.1.9,1.4,1.7.9,2.8-.4.7-1.9.8-2.2,1.1-.4.4.3,2.5-1.6,3.7-1,.6-2,.6-3.1.2-2.5-.9-4.8-2.2-7-3.6-1.8-1.2-4-1-5.7.5l-8.3,8.1c-1.1,1.1-1.6,2.4-1.5,3.9.3,5,.9,13,1.4,18.1.2,2.4.2,4.8-.5,7.1l4.2,7.6c7.3-7.8,13.3-16.7,17.7-26.4,1.2-2.8.8-10.4,3.3-13.7,3-4,6-7.8,8.6-12.1,1.7-2.8,3.1-1.6,3.2-1.6.5,0,.9-1.3,2-1.1,1.4.3.6,2.3.9,2.5,1.8,1.3,1.2,2.1.6,4.7,2.8,1.1-1.2,8.4-1.8,10.6-1.1,2.9-2.2,5.8-3.8,8.5-3.3,5.8-4.8,4.1-6.5,8.6-4.4,11.5-9.2,24.8-17,34.7,4.4-.4,8.7-1.5,12.8-3.2,2.6-1.1,5.1-2.4,7.4-4,2.3-1.6,4.5-3.3,6.4-5.3,2-2,3.7-4.1,5.3-6.4,1.6-2.3,2.9-4.8,4-7.4,2.3-5.3,3.4-11,3.4-16.9v-30.9c0-5.9-1.2-11.5-3.4-16.9-1.1-2.6-2.4-5.1-4-7.4-1.6-2.3-3.3-4.5-5.3-6.4-2-2-4.1-3.7-6.4-5.3h0Z"/>
    <path class="st0" d="M13.4-177.7c-.2-2.1.1-3.7.8-5.5-1.6,1.3-1.6,4.8-.8,5.5Z"/>
  </g>
</svg>